<mxfile host="app.diagrams.net" modified="2023-11-06T19:28:42.630Z" agent="Mozilla/5.0 (Windows NT 10.0; Win64; x64) AppleWebKit/537.36 (KHTML, like Gecko) Chrome/118.0.0.0 Safari/537.36" etag="aRHhMqhAjLeIPeJoACdw" version="22.0.8" type="device">
  <diagram name="PÃ¡gina-1" id="RXsn8EbXytg8lh2A8OMD">
    <mxGraphModel dx="1196" dy="965" grid="1" gridSize="10" guides="1" tooltips="1" connect="1" arrows="1" fold="1" page="1" pageScale="1" pageWidth="827" pageHeight="1169" math="0" shadow="0">
      <root>
        <mxCell id="0" />
        <mxCell id="1" parent="0" />
        <mxCell id="KA73Mk2cupbZ6rBoXo2E-1" value="" style="shape=image;verticalLabelPosition=bottom;labelBackgroundColor=default;verticalAlign=top;aspect=fixed;imageAspect=0;image=data:image/png,iVBORw0KGgoAAAANSUhEUgAAAs4AAABOCAYAAAAww5DdAAAAAXNSR0IArs4c6QAAAARnQU1BAACxjwv8YQUAAAAJcEhZcwAADsMAAA7DAcdvqGQAAHo2SURBVHhe7Z0HXBTX2of/7AJLVUBREQVEUDEWFAtI7GIXS2LFbmyxXiP2q9hiifGaYgzRWK8oN2o+Y0CMGisogoIURaQXKQosIkjbfb+zu3S2AGKiZp77i5eZnT3n7efMzJlZNWKAg4ODg4ODg4ODg0MpvJL/5+Dg4ODg4ODg4OBQAjdxfud4hdiwaAjFJZvvDPlIDnmE1L9ZrlexYYh+94zD8d6Th/jgh0jML9mUR148gh8mskz4wHgVi7BoIbisej8RZT1BSMyrki05fKhx+z5SE19w/nrneSsT57ywo1jQxxKGWgI0NLPHjG/vIktalYW4t38+psz+F75YMBWf7bmFjPeoWouf++PnNTPx6acTMWnKHLjuOYqj2/fjUl7JAW+ECInX/oM5PVqh/QR3RBSX7H4HyH54CiudrGDVZzNu/k3ZLEq8hv/M6YFW7SfA/a0bR4TIXb2g3XQYvg8vKNnH8SEjTjiEWQ4OmHssVcEEUoyEQ7Pg4DAXx/7us8f6QpSIa/+Zgx6t2mOCewT+1pIjisSuXtpoOux7cClXQ4pjcXn3VHQx74RZx2MU+E9x3BaHbkY3LVOMOfjk7/X9P4aa1JAPsM58iEjWONcrudfJdeBQcnX/jS57HaMNI8xJwDehCR7JFHf8E2rVazuFFbHjimPp+8GWNOpgDBXLvvlu8+oWrbVrQ6O/fUBZIsl2NHltHkymOqPoyEvZIW9OAfm5tiNBO1e6U1Cy651ARKk/DCJBgwnkmVuySyUiygh6QFH16NwCP1dqJ2hHrm/bOKI4+mZYN1rqk860+GcjygiiB/XpxHeWXIoPCqaE1yWbjGq658ZTUHACVTjk/afAj1zbCaid6x1Wff4+RHHf0LBuS8kn/QPMOFEGBT2IejvjXP41WtxKQF03PSTJsCoXuXFbTE92OVHPVdcos2TP38bbtM+7RjVfyBknP8Q684FR71ecC+4+hMnmM9g9bxQGDZ+Orf87hgWtX+DimUPYu90bJqMnoJ06O5Bvhk8/aYNr27/CtXq5Yvt2yb96CIdju2LqnC4wkFhN1xLDN/wXX31iXI+X7fkwMmz4Dq6f4UFPTxdqJVs1Ii8A+zb8jMh6vJTBNzJEw7/COHlxMJx+Al8NqU/fvo/kIWDfBvxcn058Z9GBmW1ntNQq2ZSnu44ZbDu3RNkhHwJ8Ixj+JUmlnLw4Q0w/8RWGGH94GZcXsA8bfo58O1d1+TrQ01FRmeXGbQ4Sm83Fye39YFiy5+/irdrnXaOqL+SNkx9infnA4LsxSv6uF9Rb9YSDmWbJFkPDGM//3Isrr3WR8iAdnT/fhHFtJTNnNWi+foD/7veCaOBCDLPgy45/RxHFeuP7o7/hsagbhvezhL6kvqvpooWWGLmtbGCpITtOshY4JcwfgY/TodaoGQwENZhuirIQHRiIiAweeE/P4OeH5pix0AktpCYpREZkIO4FRyGdGqKpkbaCyZwYKcFX4BsUiaiUYjRqaQxBahCu+AYjMvoF+CYtYSh1Sy4SQmJQaNwYGunh8A95DkHTJtBVYf7iUE985c3HmJXj8VGZriJkxTxAYGgCXms3QeOSRsTP7+Cb2S7Y7KeBdh2MUFzUEOZNZBPv/JQw+Ac+RrpaIzQzENRgMs76iA5EYEQGeLynOPPzQ5jPWAgnmXEYtbR3bgJCYgph3FgD6eH+CHkuQFMmG1+cguArvgiKjEIKzw4j+5vieRCzZ3Akol/wYdLSEFLz5Scj9OlrGBtrIzv2AR7EFcPIpKH0s8L0R/B/kAyecTM0KLORBEUy5iExNBqFjfWQHXYfSeomMNaReVeUFYMHgaFIeK2NJo2ZfNK9MsTZMQjwD0UqNYAgXwjS15fJphDFNspNCEFMoTEaa6Qj3D8EzwVN0UTiR/Fz3PlmNlw2+0GjXQcYFRehoTmLE5kTEeYfiMfpamjUzADl6iQiNLoQjfWyEXY/CeomxpCpIz9OZIiRHRMA/9BUUAMB8oUEfX3F2ohzYvEoWR2NG+Ti6b0APM1rAJNGVXKC5VPMg0CEJryGdpPGlWNbnI2YAH+EphIaCPIhJH2UdpefHILIPGPmgxcKdJes849EnjHTSxiB2zcC8OhpFKKi0yA2boHGWq8Q5Xsd/uFRSBU1gnljbWm79etLCWJkhN/AzfuP8TQqCjEZ6jBpweKTnfD5/3kHoVHJKDQ0QxMlEypRVjQCAyOQwePh6Zmf8dB8BhY6tSiTTZnMymwoD0UxJk4JZvUpCJFRKeDZjUR/0+cIYjkYHBmNF3wTtJQVLOaXUDx9zfyinY3YBw8QV2wEk4aSzwqR/sgfD5J5MG7WAJVT7u+L0XLEeH7nG8x22Qw/jXboYFSMoobmTHc1FGZEIvBeMKLSCQ2bGkG7QgDXSl/xM/zpfgTR7edi7sdqeMJiKV3DiOmnUaG2lsetXoWQ0Oa/QvSTWtQEVSiyuaKaq8Q+EhSNFXmJoYgubAy97DDcT2Kxb6wjy/865n11xMiJfYRk9cZokPsU9wKeIq+BCRpVdBKjbnldoYa8UDROlh7TCEVPbuNGwCNpnkeniWHcojG0XkXB97o/wqNSIWrUEo21JZZ5G/FbgcLniAgIQFhyMRqaVI5XpXav03ip3LbvApUj4W1QHIvY5EYYaJmHBDRGs2blXfIbNYYBJSMyIrtkz7uLYMBSuPbXgP/O4eji+Bm+vZ4IyVI8w2FjMVBHdow49RK2zVsB9+shCPzFFb2tHbH6UjoLW8Xkhf6E6YPn4KegBESc34Al7o/Lz7xFUTg21R5j9gbjeepd7BrWFo5ufmy6JQ8ejCzMkemxAM5zfkIYa4RnaArjJ9/DxXk5TiUUIePeESztZ4U2g7fB4/ACDB0xBdNGdEEH5x/wRFTSTE0R+mPfjPFY7RmKxEgvrOrTHk5uV5EuFkP4LBMNmjQEiQuQKxQiO48JI07FpW3zsML9OkICf4Frb2s4rr7Eji9pTx55ofhp+mDM+SkICRHnsWGJOx5XODOvlb3FGbh3ZCn6WbXB4G0eOLxgKEZMmYYRXTrA+YcnEPGMYGGeCY8Fzqy/MOYDHgxNjfHkexc4Lz+FhCIhHnquwRBrK/TZ5IkzG10wecZsfOJgg57/8kbA8UVw/nQuFk12hE3vDbidW9KtXBlT8TzgGJYPsIK102a47x6P3g690GP6EaSJhfDfNwPjV3siNDESXqv6oL2TG66WGKow9HvMXuqBhOICPD05C70+PcQGVulHclFko+KMeziytB+s2gzGNo/DWDB0BKZMG4EuHZzxAwsGsfAZMhs0QUMSoyBXCGF2HrOJGKmXtmHeCndcDwnEL669Ye24GpdSnyPg2HIMsLKG02Z37B7fGw69emD6ETahVBgnEukKEfr9bCz1SEBxwVOcnNULnx6Kk3/lSZSIG999hp7m7THlu5Nwc+oKe6dB6NXeCr033oCw5DCh/z7MGL8anqGJiPRahT7tneB2tSQmCkPx/eyl8EgoRsHTk5jV61McYsYTC4NxevVgWLXug8038+Xo/goZwaexerAVWpes8+fpNoJ29EHMHTUaXz4wRHNdSV3TQVP9QHyz5x6rbboSaerVl+XwoKv/Glc3TcDIKQcQ26SJ7OqUVmMI7mzHmvMv0UAqjzzyEPrTdAxmNSIoIQLnNyyBe8WkUiGzIhvKQ6wixnhGFjDP9MACZ1b/ZAULpsZP8L2LM5afSkCR8CE81wyBtVUfbPI8g40ukzFj9idwsOmJf3kH4PgiZ3w6dxEmO9qg94bbkKXc3xijVWG5/CyzAZo0JIgLciEUZiOvWISoY1NhP2Yvgp+n4u6uYWjr6AY/VtTFddJXhjjNG4sduqLXoI/R0dwGznv9kcNsIawSt9Jj61gTFKPY5kprrlz7SJqTP1akPg/AseUDYGXthM3uuzG+twN69ZiOI2xCWZe8l4co8Qa++6wnzNtPwXcn3eDU1R5Og3qhvVVvbLxRVmXqkNdVfSFvnCyscgzL80baiD44F6NGf4kHhs0hKzNNoR/4Dfbc46ORZMfbil8p7OTmxg7MmLkbV+LSEbZ/NNp2W4zzz2S6KrQ7821dxkuV9eddoWTJxlvjtd8qchi0hy5/1Yc0NbrRlrDyxTzFT3aSg4YGOe5+T9Y3vXpEnisHkpmWGqnx9KnN6I30f1ElK5FEaXTKpT+t9ssv2U6ib/prkkbHdRSgaPFZ7m1y7WRB08+VrjLLpT8WmJNmO9ka5+KIL6mnti1tDJI0UERB/+5MWrYbSbopl2J6utOBtKyW082SBYsFviuprVYP2vZIYuFiitnzMWnq2dHiX6OlaxqFZ6dSU4E97Xii3AO5J8aQdtkaZyH5LGxDbRb/ySSWkevnSh9pNqPxJ1Ok64LTfxxC2qafkbfUHCJKO+VC/Vf7kcw6Ikr6pj+Lh460TrFx6LZrJ7KYfq5sDV7uHwvIXLNkjXNd7F0cQ3s+1iQ9u8X0a7RUezo7tSkJ7HeQVP3ip7TTQYuslt8sWe9ZQL4r25JWj20kNZ8olX5wEpBOzzV0I0Wyo4CCN3YljQb2tOqPJOkaw6LQzWQnMKOFl5lcSmUUUQKzgUCnEy37I51eRlynKyEZlOmzkNq0WUx/lhuWXD/SpGbjT1KKSLIGvgPZrr4rW/8mSifPXfspXJG+KmxUHLOHPtbUI7vFv5LMHGdpalMB2e94IsvH9B9piLYpfSZzImvuFLn0X03lzX1D/TU1qOO6ACoSJbC2mW06LaM/0l9SxPUrFJKRqTxOJOtrO9jS6ruyHBKle9Ku/eGK12qy41e20yCT/hvJO4EJnPuIDo41Jb5mV9oYzL4l9KGFbdrQ4nLjMXt9RJrNxtPJFJF0jXwH29Uk605E6Z67aH+J8URpB2iwoAFNKF3EX0V3yfFpBwZXXudf/Jh29dKh5ixGs6Q7RJR8eCGtvJgj3RLWpy/l8Pr2F2QjaEsrbpXXoBPTJ9D+OMXrhHNvu1Ini+lUXnL+oAXmmmVrnJXLLHGBYhvKQ1WMFT9lY4CWFS0vL1i0sq0W9dj2SPq5KPUHchLoUM81N0iWcsG0sasGNbBfRX8kSfototDNdiQwW0iylPubY7Qa6fTjEG0y/cxbVvuKI+jLntpkuzFIVi+C/k2dtUprfO31paJ7tLaDJjUfuZfuvmBfeBVGhydakoYkJ6RtVonbN60JclBqc1U1t6p9JPIqGStECaxtZp9Oy/6g9JcRdP1KCGVk1j3v5VHgt5LaaZhQ/43eJCszB2msKZ80u24kWZmpa15XryGVx0kJ1Y8pfryLeuk0Z/MEWZUhUTIdXriSZGVGxVj8hvErSj1FE60G0/clNaX40dfUv5FEllcSQyi1e63HS4aq+vOuoOiyRP1QEIJvv07ErP1L0FFXwHaQZKIu+4xBhQXsfEgNWjo6Nbhl/w6ga4MJX11BeNBZbBzTEmkXtuKTXqPxbWghkHcdv/okI9J7L3bs2IEdu44jl50pbZnZHZJrT/J45XMAR6M6oF//0lVmApiZm5TdluBbL8Rx39NYZp2EG0d345BvBjszfw12slpH+NDV1QFPtxMGD7WU3i7RZWeELdSykZVVi0vOQm8cOpWA1p1tUXKxHTrdp2CcTQa8PLyQUbKvnDxc/9UHyZHe2CuxzY5dOJ7Lzky3zER3xcbBgaNR6NCvf9kaPIGZOUxKjVMHe4OvC10ddhbfaTCGWkq1h7VVC6hlZ6FG6vP0oa/Hh6alHbo1kwiiCeu2FhComcHO0RSSBUjqFuYwVXuJLCFrUKmMPOjparMm7TCwtzH02/bFwI48+Bw6hYTWnWFbblhMGWeDDC8PeGWoo0U7SyTuHQlHl634JYyPT1Z9jvaSjuWhwkZ8XV3o8HTRafBQyMxhDasWasjOyoI8c+Rd/xU+yZHw3ivx4Q7sOp4LJ7ctmClxIk8Puto86NsNRG9jfbTtOxAdeT7K40S9BdpZJmLvSEe4bP0FYfxPsOrz9lI7yoWnDW0BH8aOY+DUkgmsY4OZW+bBlsJw62YaMr0P4VRCa3QuNx66TxkHmwwveHhlQL1FO1gm7sVIRxds/SUM/E9W4fMS4/H0mC2UFiGJv6rUKX4bzJg/BPnnf8LpRJaUoic4dbcZJgzQYx8K4V2fvpSDlv1iLO6bhuP/+UX6mkhRwv/wm9pojG+pqKy/gs+Bo4jq0A/lJccM5mVJpUpmFt9KbCiP2sZYVXj6+tDja8LSrhtkKWeNthYCqJnZwdFU0q86LMxNofYyC7KU+5tjVBV8ayw87ovTy6yRdOModh/yRYa4AK9Linpt9ZXBQzOmk10j9gXdjzDjq+XozZPkRArEVeO2nmuCBKU2r3XNVT5WSPJUm9Vhu4G9YazfFn0HdgTPp+55Lw+etjYEfGM4jnGCrMzMxJZ5tqCwW7iZlvkGeS2nhlSj+jH8NjMwf0g+zv90GrIycwp3m02ArMyoGIvfMH6zvD3gI+iK7iaymsK3WYE/XyTj2Fhd1rVyu9d6vKxB/XlXeHsTZ3EGrn75LV4v/h5z2mjCoJUFjJGNTNl76aSIMzPZnkawsDB8i4LUD6LYIAQ/l8mu124s3M7eR+CJaWgtvIod/7kEcc5zZLzWQDtnV6xdu7bsvzUrxsBGbpSKkBjxFELiQ11RFPP4yAv6DvPm/4ykjrPxuWQN4hv+zqOaWuW0VePzWZJKTmhKdtQAUXoCknPFKGQnPmXeVLeAuSkPRcJMvKxaEMU5eJ7xGhrtnOFawTZr16zAGPnGgSgxAk+FBL4C49Te3hLUmP4lf0pRA5/PdjDla6o+a6HkrxJYg5X28HjSbYk9VclYpSWJYZGQnAtxYSEKyg0rHSh5RUJkviS0nHkMl90nw8B3JybZtYXDkrOIVzCiqbRRVdnV+JCZQ541xMh5noHXGu3g7Fre1tq1a7BijA2Tspo2quOEWmLmsctwn2wA352TYNfWAUvOxtdoQlWKumV7WLMBtaggD2kJycgVF6Kw3HiywswrgjDzJajlTBy77I7JBr7YOckObR2W4GyZ8Zj81VWoTLVDeGj6yXyMN7iBQ4dDket/GlEdXdBVMj+oZ1/KhW+BacvHQ/fiPvwYkofw//4J44nOUPh8nSgREU+FIL66/IFTpcwi8JTaUA61ijF5VDN6tRrG40m2JTn8bsZoZXjg5wXhu3nz8XNSR8z+XPIsS0Vb1EZf+fCMLWFhoIbi4hIpKzRZvzVBgmqbVxZfRc1VNVZUakuCCOlvlPc1QR2W7a3ZlL8IBXlpb5bXTP5qKlSl6jG8pvhk/ngY3DiEw6G58D8dhY4uXaUXvt5u/IqQkf4C+cIMZFZzlmq7S/qoEk1sR5U9FcbLmtSfd4W3NF99hcDvN+KK7SZs6Gck7URg74Q+BimV1jPnxsQiTb8XBji8+8+PFseewRGf5+XBCS1YTdqGRY585GQJwWtoiua6kfB090HJ/JohQozXBQQXlmxWQg1GjY2gXhSOwPuVX1xKYrG0n9xLrhi7OhXjvt0KFzvjsivRikqYBL46O4pk3y9HLAvMeoLf3BqWBmI8vh+I1yX7IM5HQSEPzTt1LXmosQK8hjBtrotIT3f4lBsHohgvXJBvHKgZNYaRehHCA+9L15KXIdGNNVF7e9cEdhIjNV9l60Fc84l1RWotI785rC0NIH7MTsrKDYv8gkLwmndC1xZAYkg8TGZ8i6sR4biwrjOS3Jdgq4/8l2vXr414aGjaHLqRnnCvmAeiGHhdCIZ8dVTECRIREm+CGd9eRUT4BazrnAT3JVuhQJ0yiCoU0KI85IubwKZDS7S0toSB+DHulxuPdVeAQl5zdJIZD/EmM/Dt1QiEX1iHzknuWLLVB2/0anLdgVgwox3Cj+7FZg8h+kxsJcvTevalIvQHL8P8zk9wcOdW7A+0wbSBkstQClAzQmMjdRSFB6JyyWFTTknMq5SZz+be9WxDNonnS/sv2S5BXKeC9e7EqEJyL8F17GqkjvsWW13sYFyTol5bXr/Ai9ctYGtnIh17K1L/dbP2NldKrccKPpq/lbxnNb9SmcmHuIkNOrRs+ZfkdVV0By7AjHbhOLp3MzyEfTCxlSxw3m788tHUzBTaaT7w9Mks2cfIvISDHk/RVIXdq04DVFKD+vOu8BYmzq9wf98cbEn8GCNMkhFw9y7u3PLG4R1X0XSkFR76XCpJWCH+vPIArT6bC8P9EzHB7fK7/WMolIWL213hEVH+aJ4oxRd3Y5rCeZIToDMIs1xaI+nIFPSf4oaDnmdwdPtsuN7Rg5Xk1LAaPBiPmoaRjeNw5ItVOB/HRrKCBDwIS4UoKxGxKZlIi4lG6qtEPInJQUHyLVzwS0ZxbhaSg+4gNKekmUrw0djUBFop/rh6Px1Z0T5wP+aLDFEmkmPTkZ0vhkjEqgGbfJbVaekAJZuMKkMsYt9hB0kP0xuOxfM6IfvcPhx8LCtm4rQruBZvjyWL+kKyKEdTSwC1l8+QnJGOu7eewmGWC1onHcGU/lPgdtATZ45ux2zXO9CTbxzwjEdh2sjGiDvyBVadj2OT5wIkPAhDqigLibEpEFJt7c0Qi5j+EvXLRymZ+iV68RvD1EQLKf5XcT89C9E+7jjmmwFRZjJi07NZoZVNMCpNrFkDZXaRIG1QJLOnipiQXMWhoiKUP6ihh+GL56FT9jnsO/hYNuiI03DlWjzslyxCX4EIib/sxIGAXHbeZoHh690wyVIbAq0qZ/WlqOhfzIwhkuhUHgzSuJBOoiRoakGg9hLPkjOQfvcWnjrMgkvrJByZ0h9T3A7C88xRbJ/tijt6VtCUfJfpU1RU4bETVXEiSsQvOw9Aps5wrHebBEttARSpI0OMtOgYvCz5O/X33xHaYQE+H6DFuluMeZ2ycW7fQci6Y8deuYZ4+yVY1FfAJn2/YOeBAOSyk16L4evhNskS2gIt2RUQFhuSyVqZa6vo/pDJKM2Baiel6ug0Zy76ZJ7CGfFIOJdd7n0DX+YG4NvpIzHR7SJSKndWHb4NPls+EqIz+xBmPw3dFcW+BJ4xRk0bicZxR/DFqvOQlZwHCEsVISsxFilCNRUys8hWZkM5qIoxfmNTmGilwP/qfaRnRcPH/Rh8M0TITI5FejYb3aUnypUn1pI4K4tRhizlZH7RGfTXxWhuwLeYPnIi3C6mSL8nH01oCdTw8lkyMtLv4sbdx4hOfYXEJzHIKUjGrQt+SC7ORVZyEO5Iinot9ZVBeJWVWTIRzEfY4f8iatC/8a+PJZVY4oMKcfumNUEOSm2uquZWsc+th4RBysYK9mWiIlR24RvkvSJY3EfHyKqM5GHF338PRYcFn2OA1pvV6Ko1pPI4+ZDJWP0YKeqdMGduH2SeOgPxyAp3ld5y/DYcNgsTWqbixPyxWLb/fzh38mssnOYBsrdGQxV2l8SOJG5qPF6qrJmSHe8ILCnrkSJ6uG8QNeGrSaxR4T810uyxjcKzA+k/Y/uTy67/0rFtLjR0ujuFvooh95HNqNnwH+r1xzLqm/w/N9Kk6fNo8qhh5PzJRJo03pkG9BlGiw4HU9nvn7x+TB5LB5C1oYA0G5iR47yjFFa6yF0uIsq6t59m2puToYE5dXNeStvnO5KF/SRa97MvJSWep+U9m5G+oSX1nfsjXTs+i8wNWtHwHbdLHkaSQ85d2jWsFTVsaEpdxu+ma96uZGfdl2ZuPkk3bp+l9YOaEl+jDU3c403hT27T4WWOZMDTJts57nQrSb4DXkd40aZhzYnPN6PR2/6PQoVsZ1Ec/bZhNNl16UcT5y6kOdMX0J5rqUwjGcWxJ2haOyMyauNMu+9ILPSaHnsspQHWhiTQbEBmjvPoqHLjkCjrHu2faU/mhgZk3s2Zlm6fT44W9jRp3c/k+4zJWit7v6SwX9fToKZ80mgzkfZ4h9OT24dpmaMB8bRtaY77LZKon3N3Fw1r1ZAamnah8buvkberHVn3nUmbT94iv//bTCNb8EndYix9eT6E4oLO0pZRZsRXt6Cx289RcGwQndk8klry+WQ+ejt5PclXIKOIMoM8aZ2TCbOpCQ1ac5ICXpRarojifttAo+26UL+Jc2nhnOm0YM81SpV+XEC+63uTte1AmrHSjbaunU/zt19W/tCEIhu9DKNf1w+ipnwNajNxD3mHP6Hbh5eRowGPtG3nkPutJIkT6cS0dmRk1Iacd9+Rxvnrxx60dIA1GQo0qYGZI807Gka5okwK8lxHTiZ84psMojUnA6hcHSVxUuBL63tbk+3AGbTSbSutnT+ftl+WPVwql6Ig+ndnTWreaxLNW7yCViyZTmMnbaAL8eVxWxT3G20YbUdd+k2kuQvn0PQFe+iazHisu/XU29qWBs5YSW5b19L8+dvpssR4rx7RBbfhZMr81nLUFvr9MTNQFd1THl0gt+GmzF8tadSW30lySDlZdG7OMNr0oOojN3XzpSj5CI1tZkRNmjnSltAaPMaTf5P+ZTeK3JMUWq4cURbd2z+T7M0NycC8Gzkv3U7zHS3IftI6+tn3GTtAmcxKbCiPmsQY5dDdXcOoVcOGZNplPO2+5k2udtbUd+ZmOnnLj35j+dSCr04WY7+k8yFxFHR2C40yk+Xg9nPBFBt0hjaPbMn8Yk6jt3uRLOX+ihgVUfKRsdTMqAk1c9wibUY+xRR7Yhq1MzKiNs676Y7wGZ1f3pOa6RuSZd+59OO14zTL3IBaDd9Bt5Me1UHf1xT1+5c0vV936jN6Ji1axny25TcqfWb9lby4fZOaoAC5Nq9Rza1iH+lgKn+sEGUGkec6JzJheWoyaA2dDHhRVivqlPcKkD6wqdmcek2aR4tXrKAl08fSpA0XqLzM1C2v5fmi6jgp11+lZJ2jOcM2UfUy8zbjV/Jw5ElaMqANGeuzHLWbRLuvl4/ziu3+ih79VofxUkX9eVdQk/wjmUD/deQiISgYyVrWsLNpIl2nw8HBwaGS4mBs7OaA86P8cH9rF8hdp/vBUIjb6z7Hg8/csdRS+S1KceJPmLXNCPvcP/3bf8ziH0fhbaz7/AG+PLS0ZAfH+05x8EZ0cziPUX73sbXLh11luPitG29hqYYqdGHWxREO3KSZg4OjTlS6ifkBIkbm3UPwauSCaQp/GEqMvOwcNr3Ohb/7FZhMHclNmv9qxJm4e8gLjVymlezg+KD44MsMF7915W+YOHNwcHDUgeIsZOWIkP0iU7b+7QNFnBWKoKLh+PcX/WGooEKLHu3EgKaNYNysLRY9d8FyR+4Hev9axMgKDULR8H/ji7J3+3F8CBRnZSFHlI0XmR90leHi9w34G5ZqcHBwcNSSvEhcPvkrbsZkoVjdABZ9x2PWoNb/3LtWogRc+fG/eGjkhOkTupe/nYGDg6PO5EVexslfbyImqxjqBhboO34WBrXm7o1zVIabOHNwcHBwcHBwcHDUAG6pBgcHBwcHBwcHB0cN4CbOlchDfPBDJNbo5eD/dF4hNiwawvf2AQrO1x8c+ckIeZT6zj/Tk58cgkeS38j+p5MXj+CHiXX/8ZR/OHnxwXj4XhSw932s+KcgRnbcfdz2C0VK+c9VcMiBmzhXQJxwCLMcHDD32Ls0+IoQe+Mods4fgd6OH6PP6EXYfcQbYeU/wPgXI0Litf9gTo9WaD/BHREVXkT/PvFu+pqjbmTj4amVcLKyQp/NN9/diVj2Q5xa6QQrqz7YfPNDmi7m49J8M+i0nYffanxCIEbCoVlwcJiLY9xJhJTnR0fDwMAem/zk/rpVZcQJODTLAQ5zj+HdNd+HMVa8L4if3cHJrxZhTN+P8XHfsVi27zTuJItKPlWBKA5n1nyO3Rf8cGHTMLTpOBnHYmr43X8ikjXO7x2iDAp6EEXyf66jFlRrJ5fig4IpoeTl8e8S+Vc/Jwu+JvXZG1v28vG/jwLyc21HgnaudKegZNfb4h/o6w+G+vJdTRCl0g+DBNRggifz7LuLKPUHGiRoQBM832Upa0nBTfpXTyf6OriWyZQbT0HBCcSloAQhebp0ocn/ja1xvuTGB1HwO1/A/sKxgoOoKJQ222mQRud/U1ANfjtJhojST35KpiMOUoZkK+NP2jZtAR1+/JdU7veS9/KKc17APmz4ObLCTxXXjert6MDMtjNavoNvduI3MIQ+Tw0NDBu9A7cJ+DAybPiXyPFP9PWHQn35rkbw9KCnq/RHdN8JeHp6eA/ErBWiZ5no7HYcyzvXMpl0zGDbuSW4FGQUxkA8+ADcXSxYda0ZOma26PzOF7C/bqzgYLA6qC8pMPoN0KDGdaYQ9676IldHX5qLPKP+WH/8AGa1417Vo4j3LJ7FeH5nH6ZO2Q3/uGD84XMNYc/L71Plp4TB99oNBMblVLr9Ls6Owb0bN3E/NgsZKSnIVdKOvPWH0nZv3EZwfLbc2/qirBgE3rqJuxHp1d4vW73vN6MmufDW5BFlIfreLfiFJCNfniTs85jAW7h5NwLp1TtGzL0buHk/FlkZKUhR2fE/yNd5iQiNeA5R/jOE+D9GRtkdsnykhPni2o1AxOVUkEacg9jwGOSIRciMvMvsHYmsSnfV8pAYGoHnonw8C/HH4/IGa2G3CuSnIMz3Gm4ExrE+S/ZJyE1ACJNbzCyRFu4Hv/BSmyjxXWEGIv2v4+r1e4jOqjylzk0IQYTkuMI0hPv5IbxaEClDDWpqbz8msyJuwefiRVxk//ncfoJsiVo5UfC9xPb53EJElkzPwoxI+F+/iuv3olFJTSajfDEVx1VeYiiziwj5z0Lg/zgDFbwpPz6YnNkx93Dj5n3EZmUgRbViJeQjOfQx0lhTImEsAv2CkFD61cJ0PPK7heDkqosfCyEsbAZzjQgERmeVnCTlIubOJamNLl70wfWw5yhIDMAlyfalACSUKcj6C3lUaalBfnIoHssEQGygH4LKBUD6Iz/cCk5m0V2FevZxRvj1Mh9fuhsry4W8OPhLfXwd4RkVba2IWtpSswsmTWiB2Ipr9BXmVwlV1/Sz7dDHaWxbBGFsIPyCEsryuDD9EfxuBaOa+9ixWTGBuHXzLiKqGq/WtquAqrFCUU1RhDgFwZd9pPF083EW01GMlKDLUj9duhNTXq9U2UwVCmqxwnxmPSeEsFrLdChMC4efX3j1GCzJ0xu3gxEvLRhVUBa/9YISGQsTEXDpD9yJEqL4xSNcuXgJflHlS4VqXZfqEIOKbaus9v29vF8TZ7EQzzIboElDgrggF0JhNvIkhhan4tK2eVjhfh0hgb/Atbc1HFdfQrokUEK/x+ylHkgoLsDTk7PQ69NDiCus3s6rjGCcXj0YVq0rrj/Mgf+eMRixwReFgpfwWeKAdt37Y/CIcdhyVRIOQvjvm4Hxqz0RmhgJr1V90N7JDVclHTPk9l0lMOqXtydPXuhPmD54Dn5iiRBxfgOWuD+udCVR6L8PM8avhmdoIiK9VqFPeye4XU1nCcQoDMX3s5fCI6EYBU9PYlavT3FIVcf/BF+LMxBwbDkGWFnDabM7do/vDYdePTD9SBqKUy9h27wVcL8egsBfXNHb2hGrL6Ug/sZ3+KynOdpP+Q4n3ZzQ1d4Jg3q1h1XvjbghZIN+wDEsH2AFa6fNcN89Hr0deqHH9CNIK66l3aSyi5F6aRvmrXDH9ZBA/OLaG9aOq3Ep9TnuHVmKflZtMHibBw4vGIoRU6ZhRJcOcP7hCUQKfCeKOoap9mOwN/g5Uu/uwrC2jnDzy2NmuIcjS/vBqs1gbPM4jAVDR2DKtBHo0sEZPzype6ms95hk5VK3kTaiD87FqNFf4oFhc+hKKqhOU+gHfoM99/hopEuIOjYV9mP2Ivh5Ku7uGoa2jm5gaipAcVyJMwJwbPkAWFk7YbP7bozv7YBePabjCJuNieXGh0S3QoR+PxtLPRJQXPAUJ2f1wqeH4lRc9RdD+NATa4ZYw6rPJnie2QiXyTMw+xMH2PT8F7wDjmOR86eYu2gyHG16Y8PtkqFQFIVjU+0xZm8wnqfexa5hbeHo5scmtlpo1EQEv51TMXL0RlwX60JDNwEeX2zH9QIjGKmz/oJPY/VgK7TusxmSFBQLH8JzzRBYW/XBJs8z2OgyGTNmfwIHm574l3cAji9yxqdzF2Gyow16b7hdNhi/FR/rv8bVTRMwcsoBxDZpIrsirtUYgjvbseb8SzSQOl0RdbAly5fg06sx2Kq1bI0+qwuq8qvy8UI89FyDIdZW6LPJE2c2umDyjNn4xMEGPf/ljYDji+D86VwsmuwIm94bUOo+ZjzsmzEeqz1DkRjphVV92sPJ7aq0JtTNdjKUjxUKakpJHVUIzwgW5pnwWOCMOT+FsfZ4MDQ1xpPvXeC8/BQSilTYrKQZhSisxc8QKTefWa29dwRL+1mhzeBt8Di8AENHTMG0EV3QwfkHlJWtHH/sGTMCG3wLIXjpgyUO7dC9/2CMGLcFkmFFafy+MTWQkQqRmy1EbiGBinKRLRTiZb5IEsW1q0vdJ2OL++paxqBIYa1UVvveCUqWbLxHpNOPQ7TJ9DNvypduiyjtlAv1X+1Xtp30TX/S1OhI6wJyyc+1A9muvitbRydKJ89d+ylcuvanajvs47QDNLjC+sPiRzvIXq8rbXooWyxU9HATdRVY0pLrssVaQp+F1KbNYvqzdLlirh+5fqRJzcafpBSRZG2Xor5rT1HAeuqoIaBRR16W7KnOW5Mn9za5drKg6ecyS3fQHwvMSbN03ZrQhxa2aUOLyztmfX1Ems3G08kUERX4uVIH29V0V9YxpXvuov016vgf4GtRAn3TX0A6nZbRH+kvKeL6FQp5nkKnXPrTar8SaUVJ7BhN0ui4jgKKWF8r25GGSX/a6J1ABczWjw6OJVO+JnXdGExFzCYJzCYCnU607I90ehlxna6EPKeUOthNlHaKXPqvpnIxvqH+mhrUcV0AFRXH0J6PNUnPbjH9Gi0NAjo7tSkJ7HfQE+nSuKo2L6aIL3uStu1G2dq7oiD6d2ctst0YxGRmn8bsoY819chu8a8ka+4sTW0qIPsdT2q45jOXTozRLl/j/NZiksn6eBf10mnO8iFLtkOUTIcXrqSLOZIPI+jLntplehUF/Zs6a9nSxtIFh7knaIx2edwpjyvWdAKzuUCHOi37g9JfRtD1KyGUUZSmOD4k3+9gS6tlijF3etKu/eFSWZQjotQfnFjc9KQ1N1KkNi8I3khdNRqQ/ao/KEmqTChtthOQ2cLLUp8WR3xJPbVLdSuioH93Jq1S/zJE8cdonIkmWc0/T7e+nkbzT8WzXkphuXxgMAkaTKASU0jXfzsxXXuuuUEpMgFoY1cNamC/iv6QCUChm+1IYLaQLksEeIs+fn37C7IRtKUVt2R2ZMlAJ6ZPoP1xNXnCpPa2lLR/YHCFNfqq8qvq8ZI1/k6sjvRcQzdkxqPgjV1Jo4E9rfojSRaLoZvJTmBGC2XGI5+FbajN4j9l32fkMnt9pNmMxp9Modd1tZ2KsUJpTZHtUkzxU9rpoEVWy28y7SQUkO/KtqTVYxs9kqissiapQF4tTn+kJJ+LKWbPx6SpZ0eLf42WyiQ8O5WaCuxph7TDYnq0w570um4i2bBSRA83dSWB5RKSDisq4rdOiGJpbx9WCz7+iqKlOquSUUIunRynRwYT/1cWC3WrS7WMQRW1Um4fdTRLffMBLD3Kw/VffZAc6Y29O3Zgx45dOJ7Lztq2zER3XXW0aGeJxL0j4eiyFb+E8fHJqs/RXr3kq1Xg6elCp8JdpeL4aCQWSu+uSlG3tEQLtRTEx71mW0J4H2Jnuq07w1ZH9jl0umPKOBtkeHnAK6N2fb85b0+eVz4HcDSqA/qV/TSnAGbmJmVr8YTeh3AqoTU6l3eM7lPGwSbDCx5eGVBv0Q6WiXsx0tEFW38JA/+TVfi8Tob4AH3N04OuNg/6dgPR21gfbfsOREetm/jVJxmR3nuZjkzPXceRy872t8zsDl3woK0tAN/YEWOcWkKT2dpm5hbMsyWE3bqJNDEPerra4OnbYWBvY+i37YuBHbVwsw52y7v+K3ySI+G9V/KdHdh1PBdOblsws7suwNeFrg4Pup0GY6il5Je1dGFt1QJq2VlVlo2Uwof1wuPwPb0M1kk3cHT3IfhmiFHwOl96dYWvy/zB00WnwUMha84aVi3UkJ2VVafbc28zJvltZmD+kHyc/+k0EpnwoiencLfZBAzQk3xojYXHfXF6mTWSbhzF7kO+yBAX4HW+vCslquJKFqfaPH3YDewNY/226DuwI4zyryuOD/UWaGeZiL0jHeGy9ReE8T/Bqs/bQ7VmLAb19cDXtIRdt2bS3Na0bgsLgRrM7BxhKmlA3QLmpmp4mSWU+oRvvRDHfU9jmXUSbhzdjUO+GRAXvEapqjyzqfhu71i8PuyCeVETsH2CGeulFEmc6lS6ic/T14ceXxOWdt3QTCYA2loIoGZmB0eZALAwN4XayywImQBv08da9ouxuG8ajv/nF+lSElHC//Cb2miMb1mTIbP2tpTWgYoFSVV+VT2exYi+Hh+alnboJjMerNtaQKBmBjtHU6n/1S3MYar2Elky4+HQqQS07mzLrCZDp/sUjLPJgJeHF7LraDtVY4XSmvKm1LomVUFeLTZuqySf+dBlMczT7YTBQy2lv2Kqa23Fxo1sZEk7LEZ8dCIKJcvIJO0zL1haMnlS4iEZVlTFb/2gSkZ51LEuqdcyBlXUSrl9vCMz1vd/4izOwfOM19Bo5wzXtWuxtvS/NSswxkYTLWcew2X3yTDw3YlJdm3hsOQs4hUmEQvvCrVI0GMkhphE4crFp9JbTYWPIxBvMBCj+rIRUpSOhORciAsLUVA2JsoKO69IiMyXVMu+35C3Jo8IiRFPISQ+1OXWTRHSE5KRKy5EYXnHsgThFUGY+RLUciaOXXbHZANf7Jxkh7YOS3C2Lob4IH1dQYgSxDnPkfFaA+2cXct1ZP+tWTEGNvJ8oG6J9tZs4CkqQAHJabFOdhMj53kGXmu0g7Nrhe+sXYMVY2yY9lXX6qqBz2c7iKDop0h5/DwEfTcP839OQsfZn8OpBb/8WMna35I/pajxIWuuLj9s+pZjktcUn8wfD4Mbh3A4NBf+p6PQ0aWrdFCSlFR+XhC+mzcfPyd1xOzPndCCr0AHlXHF5KnmTBXxodkSM49dhvtkA/junAS7tg5YcjZeNjlTBeurcndVfcwDT7Jd6hMeH3lB32He/J+R1HE2Pndqgcqq8tB88CQMaylCzLU/EPSyZHcpcvqrsoP1X3kHTyYA+99b9jHfAtOWj4fuxX34MSQP4f/9E8YTnWFc0xGzmioqbMmonAGq86tKxlTbrpZTPJ50W9KlKD0BybliFBYWlC8LkE7meSgSZuJV87rYTtVYoaqmvCmqbaacKvaTojyfq8anGp/PWmH9SQ8RoMfIITCJuoKLT6WjCh5HxMNg4Cj01VMdvzWMVJUol1EOdaxLEmoTg6psq6iPd4H3f+LMawjT5rqI9HSHT+kDSAxRjBcuBL9GYkg8TGZ8i6sR4biwrjOS3Jdgq08N36FqNBpfHZiDBje/w9a9X+PLMxr44uIJfGbBzqb4zWFtaQDx4/sIlFyUlCJGfkEheM07oWsLvFnftUAUewpHrjR4S/KowaixEdSLwhF4v6BknwwSSx7R4KO5tSUMxI9xv7xjiPMLUMhrjk6yjhFvMgPfXo1A+IV16JzkjiVbfVBrS/xDfM1raIrmupHwdPeRPtAhg00+vC4guPQJDVZ5ygtrEfLYWXoTmw5oXnpppyJ1slshGpo2h26kJ9x9JA/blCCKgdeF4No9cCMlF5dcx2J16jh8u9UFdsalgiqq3m/C249J3YELMKNdOI7u3QwPYR9MbFWiT+4luI5djdRx32Krix2UqqkyruQ5U0V8vE5ESLwJZnx7FRHhF7CucxLcl2zFWyg7TFVXjF2dinHfboWLnXHZVcUyVcUpOLftIrocPYqJrw/i8zUXkVkefm/I2/ex/uBlmN/5CQ7u3Ir9gTaYNlByS+HDgN/cGpYGYjy+H4jy0MtHQSE72enUFSbP6mI7VWMF7w1rCpuQsyCTtFUJcU0nxnWgNvksB6PRX+HAnAa4+d1W7P36S5zR+AIXT3wGCzZ5VRW/8rP/L6COdanWvKFt/07ew4mzJrQEanj5LBkZ6Xdx6yFh0CwXtE46gin9p8DtoCfOHN2O2a53oGfFR+IvO3EgIBfQssDw9W6YZKkNgZbkVKZqO5KHNEQsBwlleSn0wtr1sRjx9TasWrwcbrs2Y5qtQcmHehi+eB46ZZ/DvoOPZUkvTsOVa/GwX7IIfQXs7FtR3+JMXN06ERPcLqNGD2gzxEUsoZhsr/PYmWDJPimvQvDDhlsQdG9Wd3mUwoPxqGkY2TgOR75YhfNxrCAWJOBBWCpEWYmITRFCbfhizOuUjXP7DuKxrGOkXbmGePslWNRXAFHiL9h5IIBNnbRgMXw93CZZQlugVYMTyg/A1yqRnPkTiooqPHijMwizXFoj6cgU9J/ihoOeZ3B0+2y43tGDleyyJus+GjElV/DEqb/j99AOWPD5AOmDTJL2qKhIeuVchk6d7KYzaBZcWifhyJT+mOJ2EJ5njmL7bFfc0bOCJrOfiM3ciQ1apbBumTCSAVJCFZsHpSEmOhWvEp8gJqcAybcuwC+5GLlZyQi6E8rcwdpjtihvTjYYiqsOkgoRQ8S+XHq83luLyRLUO2HO3D7IPHUG4pHlVyLFOTGITn2FxCcxyClIxq0LfkguzkVWchDuhOawAyRxx2wkFVNVXLFtiS+pCBXDQ2l88BPxy84DkLlzONa7TYKltgA1CUXp5EYiW8m21AdlskqQ+UQk3SFGTkw0Ul8l4klMDgqSb+GCXzKKc7OQHHQHoTnFeHJoE652W48FvT/Fnm8mo/DoIqz8TfLEvQyxSCxrv2SbCcD6qpCTDEksV4wBaYyx70n2vHUf823w2fKREJ3ZhzD7aehekns1oXa2lCCL37JJocr8qnI8a01ip0qTSknslB3PkBlPJoPecCye1wnZ5/bhoMx4LPSu4Fq8PZYs6gv1OtlO9VhBympKSSsK4TeGqYkWUvyv4n56FqJ93HHMNwOizGTEpmcjX6XNVCHxUeVarDyfs1l/0g6lvpQi67DMz0KvtVgfOwJfb1uFxcvdsGvzNJQOK6rity7zBFABO/lhMhSzmiHdweJEhYySmJDoXH73oY51qZYxqLJWyu3jHYEFyntGMcWemEbtjIyojfNuuiN9Vu41PfZYSgOsDUmg2YDMHOfR0TDJqvYC8l3fm6xtB9KMlW60de18mr/9snRxe7V2Uh7RBbfhZMrnU8tRW+j3x7kkenaaplkIiBUL5m01UuNrkl7j1vTx3KP0SPpwQxHF/baBRtt1oX4T59LCOdNpwZ5rlCptX0nfxTHkPrIZNRv+A0WpfGiByXnjGO2c2IY01dRI06Qz9R8yjIYNG0ZDBvSij5ppU4ORh0r6rKM8KhFR1r39NNPenAwNzKmb81LaPt+RLOwn0bqffekZ06Eo7jfaMNqOuvSbSHMXzqHpC/bQNVnHVOC7nnpb29LAGSvJbetamj9/O12uUccfgK+VIcqkIM915GTCJ77JIFpzMoBelH7n9WPyWDqArA0FpNnAjBznHSWpmkwOyUNYms170aR5i2nFiiU0fewk2nAhnmkposwgT1rnZEJ8vgkNWnOSAsobrIPdJGJ40NIB1mQo0KQGZo4072gY5dJLCvt1PQ1qyieNNhNpj3c4Pbl9mJY5GhBP25bmuN+ipOKqvhPRs/PLqWczfTK07Etzf7xGx2eZk0Gr4bTjDz/6df0gasrXoDYT95B3+BO6fXgZORrwSNt2DrnfSpIJo5DXFOG1iYY1Z3Y0G03b/i9UuvftxGQFss7RnGGb6IHsWRYZomd0fnlPaqZvSJZ959KP147TLHMDajV8B91OiSCvTcOoOYs7s9Hb6P9ChewLiuNKlBlEnuucyIQdbzJoDZ0MeME8XIKi+CjwpfW9rcl24Axa6baV1s6fT9svp5R/TwGvHv1Gm0e2IL66BY398jyFxAXR2S2jyIyvThZjt9O54FgKOrOZRrZkNjYfTdu9nlDes/O0vGcz0je0pL5zf6Rrx2eRuUErGr7jMt08OJnaN7Kjpd6yuHx2bR05NuARr7EjLTkaQIlhF8htuCmL05Y0asvv9Dj9Ef22eSS1kPb3JZ0PiaOgs1tolBmf1C3G0vZzwRQbdIbJ2JJ9x5xGb/eiJywv37qP82/Sv+xGkXtSzb9Xe1sGUfAFNxpuyrZbjqItvweqyK8/6Nr/VTz+Pj36jbXXQmarL8+HUFzQWdoyykwmw/ZzFBwbRGeYfVuyWDIfvZ28ZMaj3zaMJrsu/Wji3IU0Z/oC2nMtVRordbed6rFCfk2pGTl3d9GwVg2poWkXGr/7Gnm72pF135m0+eQNun1WVU0qaUQeimqxknz+w+9XWj+oKfE12tDEPd4U/uQ2HV7mSAY8bbKd4063kgrp2elpZCFQk8wWCWz85mvqUePWH9Pco4+kD4Uqi9/azROYqMl3yHPfHOqip0Y8/S40fedx+uPqGeUyxkfRnz8spd6NWW426U8rf/yF7kgNVdu69Kr2Mfg4VqFtb7JjFda+dwA1yT+yKTRHVcTPfsOWH3MwbmZXiF9k4uWrPOQIUxDqeRjxMy/hwDDJqRfHh8D74+tiBG/sBofzo+B3fyu6vPnCQA4ODgWIE3/CrG1G2Of+KUofd+PgqBliPPttC37MGYeZXcV4kfkSr/JyIEwJhefheMy8dADcFOL95P1f4/y2EKfg5NLleGg5FJ0sbWDbwxF9BjhhxLgJGNqtOz6y5GYsHwzvqa8r3BDj4OCoN8TIy85BIXLh734FJlNHcpNmjlojTjmJpcsfwnJoJ1ja2KKHYx8McBqBcROGolv3j8BNId5fuCvOihCn4fyifpjqUYTuI4fDoW1T6IhfIik2DYYjNsBtQg3WZHG8H7xXvs7HtSUfYciFwfB6dABOpa8L4uDgqBdEj76EY1c3PDZogtaj98P7wGg04y4xcdQScdp5LOo3FR5F3TFyuAPaNtWB+GUSYtMMMWKDGyaUPrDC8d7BTZyVko/Eu7/jwvVQpOSpw8C8C5ych6FT2eOfHB8O74Ov8xB5+SR+vRmDrGImo0VfjJ81CK25+svBUX+IEnDlx//ioZETpk/oXv60PwdHbclPxN3fL+B6aAry1A1g3sUJzsM6cTH1nsNNnDk4ODg4ODg4ODhqAHcDioODg4ODg4ODg6MGcBNnDg4ODg4ODg4OjhrATZw53iFeITYsGsIavS4iH8khj5Cq6tj8ZIQ8Sv1r30CRF4/gh4kqfmXrfaA2/uB4m+Qnh+CRymDn4KgfxNlxuH/bD6EpeaycBeNhYj1Xs1exCIsW1rkuvxWZ3iXe0D7V4Wp5ffIPnTjn49J8M+i0nYff3rvBSITIXb2g3XQYvg+v/LOm7y8iJF77D+b0aIX2E9wRoeKXgrIfnsJKJytY9dmMmwprZzYenloJJysr9Nl88y+cxIqRcGgWHBzm4th7O9GpnT843iLZD3FqpROsrPpgs+Jgf68RP/fHz2tm4tNPJ2LSlDlw3XMUR7fvx6W8kgM4/kJEiDuzBp/vvgC/C5swzNoGvYf2hMPcY6ovUtQEUSKu/WcOerRqjwnuERV+3bQWiBNwaJZD/cn0LlEf9qkEV8vfBv/MiXNhAC49bIdt//sWzrV5z5A4E8FB0SwU/0bESfC5UYR5x4/j848+lLen89Gy/yJ81q+x7Bc5VdCw80S4jrNRcWxDdJ7oinE2VP5TozVCjMzgIETX2ck8mH12FHfuHMSM9/YdVrXzx1/Lm/rnPaNhZ0x0HQebD/UZ7tzb2DBsOi6YLsOh/3ni9MH16J93Chu+vISUN/CxODMYQf+YIKk/xM894bo8DN2+WIIlOzxxYm1fdJlzGncOzqifV/LxW6L/os/Qr3Ft63IFeGb47Oid+pPpXaI+7FOJOtTyd2Ge847zj5w4i55lorPbcSzvrFWyp2bkBezDhp8j6+Es8A3Ii4Ph9BP4aojxB+Y8PowMG9ZQJx709HShVrKlEJ4e9HRVHlWZvADs2/AzIt/EyTpmsO3cErWLrneN2vjjL6Q+/POewdPTQ23D+H0h/+ohHI7tiqlzusBAEmy6lhi+4b/46pM3qW95CNi3AT//k4Kknii8dxW+uTrQlxQvnhH6rz+OQyvHonPLeqxmfCMYNnyzyqJjZlu/Mr1L1IN9KlO7Wv5OzHPecerTO38thc8Rcfc6rvtHIUtyaiROQfBlH1y86IObj7MgZv9LCboMn4sXcelODHJl32IUQljYDOYaEQiMzqocHLkJCIl4zr5ZiLRwP/iFp7O/JIjx/M4+TJ2yG/5xwfjD5xrCnpffIxJlxSDw1k3cjSg9vhxxdgzu3biJ+7FZyEhJqSCHHBT1X1G3xE5wmdQGGfJ0y09G6OM09n0RhLGB8AtKKPusMP0R/G4FI7na7c98pIT54tqNQMTlVL7vlZcYiojnIuQ/C4H/44yyM9B601eCKAvR927BLySZSSJndpCfgjDfa7gRGIeK4qmpqameOLMjJMdVR4SsmEDcunkXEenlGoif38G+qVOw2z8OwX/44FqYxBcy8lPC4HvtBgLjcsr2Kabq+utcJIREQBIyhWnh8PMLR4VuS5D54cbtYMRnV+khLxGhLC5E+c8Q4v8YGWWXAhT5TozsmHu4cfM+YrMykJJS0QuFyIj0x/Wr13GvavxLUOUP9nlM4C3cvBshR4fqiHNiER7DbCbKRORdFjORWdWvZCjwcVW9n6fWwT8Kc7oCivqXUojnEXdx/bo/oqSFpiKK7F8Tf1enMCMS/tev4vq9aGRVdIwk1ms0cc5DYijrV5SPZyH+eFwaKIUZiPS/jqvX7yG6UsM1k1Nq2xu3ERyfLSf25edSTVHT1IT6Sx/8Z9uV8ivMPGMMnTwSplXedVujHBQ/x519UzFltz/igv+Az7UwqX5SlMVuXWqnQrsqpvB5BO5evw7/qOp5oKyu5ieH4nEaU0QkRGygH4ISyqRD+iM/3ApOZt6vSm18U4jEgEv4404UhMUv8OgKG1v8opAj+ajqcyI1ySk5iLKice+WH0KS8yWluRq1qrF1kUma5zdwOzgeVUts/dZY5b5URL3aR4LSWi5vHFA2z1EWS8ptUYo4JRiXfS7ios9NPM5i7bJ5TZB0XnMJd2LKv5ObEMLmHezzwjSE+/khvA515W3zHk6cmXNv7MCMmbtxJS4dYftHo223xTifagAL80x4LHDGnJ/CWCDwYGhqjCffu8B5+SkkSBJBFIVjU+0xZm8wG4TvYtewtnB080OeOAP3jixFP6s2GLzNA4cXDMWIKdMwoksHOP/wBCKxEM8yG6BJQ4K4IBdCYTbypJEmhP++GRi/2hOhiZHwWtUH7Z3ccDVdFmyFod9j9lIPJBQX4OnJWej16SHEyauvqvpnZ/5KdSsS4qHnGgyxtkKfTZ44s9EFk2fMxicONuj5L28EHF8E50/nYtFkR9j03oDbJTEqTr2EbfNWwP16CAJ/cUVva0esvpSO4owAHFs+AFbWTtjsvhvjezugV4/pOJKWWT/6lpAX+hOmD56Dn9ggFXF+A5a4P64wkRMj9dI2zFvhjushgfjFtTesHVfjUklfdUboj30zxmO1ZygSI72wqk97OLldRbpYDOGzTDRo0hAkLkCuUIhsiZPFqbi0bR5WuF9HSOAvcO1tDcfVl9jxJe1VgrURfBqrB1uhtXT9tRgZ945gaT8rtBm8DR6HF2DoiCmYNqILOjj/gCelxTnHH3vGjMAG30II2CRiiUM7dO8/GCPGrsH+n5ZjgJU1nDa7Y/f43nDo1QPTj6ShWIHvJANH6PezsdQjAcUFT3FyVi98eihOZldF8S8VQpU/JKbbhxnjV8MzNBGRXqvQp70T3K5K+pSDKBE3vvsMPc3bY8p3J+Hm1BX2ToPQq70Vem+8wTJHggIfpz5HwLGqenfHlAPR0Kupf4pV5JSy/kucK35+AztmzMTuK3FID9uP0W27YfH5Z1J95edOKp7XxN/VECHq2FTYj9mL4OepuLtrGNo6usGvxmt8WZwFHMPyAVawdtoM993j0duhF3pMP4Jnkccw1X4M9gY/R+rdXRjW1hFufq9qFpds2uS/ZwxGbPBFoeAlfJY4oF33/hg8Yhy2XGVFRGEulXy9BggGLIVrfw347xyOLo6f4dvriZA8uWE4bCwGlv4qZi1yUCx8hswGTdCQxCjIFUKYnSeNYYWxy2p7XWqnKEqeXZU4jE3ob+yYgZm7ryAuPQz7R7dFt8Xn8Uyqg+JxRCx8CM81Q2Bt1QebPM9go8tkzJj9CRxseuJf3gE4vsgZn85dhMmONui94Xb5hYpa+4ZQmJsNYW4hiIqQm81sJ0xHsMdqDLZqLXtORNU4VdJSdfIQ+tN0DJ7zE5vwR+D8hiVwf1yhstSmxjJ/BZ+uvUw5/nswZsQG+BYK8NJnCRzadUf/wSMwzu0cblarNW9QY1XMCeRTj/YpQWktVzgPUjDPURpLymxRGZ6RBcwzPbDAmckVxo7gGcLU+Am+d3HG8lMJKMq4hyNL+8GqzWBs8ziMBUNHYMq0EejSwRk/KC6efw+SH0B5nxClnqKJVoPp+ziRdLv40dfUv1Fzmn7uFdt4SjsdtMhq+U0qkH5aQL4r25JWj230qJh9HPEl9dS2pY1BReyzIgr6d2fSst1I0s3iGNrzsSbp2S2mX6Ml3xbS2alNSWC/g56w7xKl049DtMn0M2/Kl2wyhD4LqU2bxfRnbsmOXD9y/UiTmo0/SSmiAvJz7UC2q+/Sa8lnonTy3LWfwiV9yUNV/yp0Y4ahH5wEpNNzDd1IkewooOCNXUmjgT2t+iOJacs0Dt1MdgIzWniZaSBKo1Mu/Wm1X4k2oiT6pr8maXRcRwHsYFHCN9RfoEOdlv1B6S8j6PqVEIr1rkd9c2+TaycL5rfM0h30xwJz0mznSneYgqK0U+TSfzWVi8fk0dSgjusCpLrknhhD2g0mkGepLHLJpRNjtKnBBE/2lwQh+SxsQ20W/1myLVHBlT7SbEbjT6aQJKLSfxxC2qafkbe0XxGlnXKh/qv9SnwuoqRv+pOmRkdaJzGSXNh3DgwmQZlsxRSz52PS1LOjxb9GS30nPDuVmgrsaYfMsfRohz3pdd1ED6VNFtHDTV1JYLmErksOFiUwvzC/dlpGf6S/pIjrVyjkeYpi30l80sGWVt+VeoG5wZN27Q+X2kxp/KvwBwt2WtimDS0udz7z90ek2Ww8nUyR5WI1CvxoZTsNMum/kbwTWCO5j+jgWFPia3aljcFFyn0sT+8MUe38oyKnlPefSqcmWtHg7+NYq4ziR/R1/0bUfPo5eqU0d1T5Ww7FEfRlT22y3Rgky9Ogf1NnrVI/MXJP0BjtBjRBabCLKIHpLtDpRMv+SKeXEdfpSkg6PfqyJ2mX+rgoiP7dWaukH9VyFj/aQfZ6XWmTLDCp6OEm6iqwpCXSwFSdSzXm1SPyXDmQzLTUSI2nT21Gb6T/i5LFr0SvWudg+o80RNuUPpMFierYrW3tZLaLUGhXeYgo9dREshr8PcmGLZbzX/enRs2nk2TYUj6OSMT7gZxYLe655gbJxAumjV01qIH9KvojSSoAhW62I4HZQpKK9wa+yT05jvQMJtL/Sr/IYv3AYEF5DVU5TlYn97YrdbJgupaVlj9ogbkmtXO9wyxdB//WViaWuzvs9ajrpocy/xQ9pE1dBWS55Lo07uuzxqrypTzq3T4qarnScaDaPEdFLLEar8gW8ih+upMctKxo+U2p5Vks+9LKtlrUY9sjlhUSV+6hjzX1yG7xryRz5Vma2lRA9jueSD9/V3jvrjhneXvAR9AV3U1kovNtVuDPF8k4NlZXuq0MvvVCHPc9jWXWSbhxdDcO+WawM6vX7KxV8qEudHV40O00GEMtJb9hrMvO8ltALTtLthSkGkJ4HzqFhNadYVt6ZUSnO6aMs0GGlwe8MtTRop0lEveOhKPLVvwSxscnqz5He/WSY6tS6/6rwNOHvh4fmpZ26NZMco9TE9ZtLSBQM4Odoykk3apbmMNU7SWyhKzBvOv41ScZkd57sWPHDuzYdRy57Mx4y8zurGfWnJ4utFmbdgN7w1i/LfoObIk7h+tP31c+B3A0qgP69Tcs2SOAmbkJSu/O5l3/FT7JkfDey2Rj8u06nsvOcrdgZnfVflaI0BuH2Jlt6862KFdhCsbZZMDLwwsZJfvKycP1X32QHOmNvRIb7diF47lOcNsyE4rF4EFPV6fCjTE+dNk2T7cTBg+1ZF5hnrW2Qgu1bGRJHVuM+OhEdt5euvREHZaWzO8p8Yh7zTZ5etDV5kHfbiB6G+ujbd+B6Kh1U7Hv1FugnWUi9o50hMvWXxDG/wSrPm8v9b+y+FflD6H3IZxKaI3O5c5H9ynjYJPhBQ+v6paTwtOGtoAPY8cxcGrJNNexwcwt82BLYbh1Mw2vlPlYnt5GVcuVCv+oyCmlMZblDQ8fAbp2N5HdluPbYMWfL5B8bCx0leaOKn/LgW+Nhcd9cXqZNZJuHMXuQ77IEBfgtbQw1RRJ3GmzMmCHgb2Nod+2LwZ2NEbbhcfhe3oZrJNu4OjuQ/DNEKPgdT7ENZCzOD4aiYXSlSJS1C0t2ecpiJcEZq1zSQm6Npjw1RWEB53FxjEtkXZhKz7pNRrfhkpu0dYlByujMnZrWzuZ7awV2lUeWfD28IGga3fIhi0+bFb8iRfJxzBWV9U4IhFPH3p8TVjadYNMPGu0tRBAzcwOjqZS6WBhbgq1l1mQilefvpHkoU6F2/y1HqdewefAUUR16Ify0mIGc5OySl97/9ZWpuJ4RFcOZFi2UENKfBwkJbb+aqxqX1an/u2jqpYrnQdVRVUsKRlv6gJfVxc6PF10GjwUMldaw4r5KjtLzhK/v5H3bOIsQkb6C+QLM5BZl0dOeXzkBX2HefN/RlLH2fjcqQX4Ze1UXUeoBj6f7SAFT7eK0pGQnAtxYSEKygJOVsB4RUJkviS0nHkMl90nw8B3JybZtYXDkrOIV+j9WvYvh9KpVxmswUp7eDzptuTpWnHOc2S81kA7Z1esXbu27L81K8bARhL1VZqqX31FSIx4CiHxoS43w8TIeZ6B1xrt4OxaLtvatWuwYoxNnZNSlJ6A5FwxCgsLygc4dQuYm/JQJMzEy6qyinPwPOM1NNo5w7WCjdauWYExUiMpgNmuovmqrrNW4/PZ58yvUscK0GPkEJhEXcHFp5IbXIV4HBEPg4Gj0FdPerTkn0oo9Z1mS8w8dhnukw3gu3MS7No6YMnZeFnRURj/qvwhQnpCMnLFhSgsd75sMsErgjDzpaz9GqBu2R7WrOAXsUL9UqmPq+tdDZX+UZZTymNMLSMdL/KFyJBTaFTljnJ/y4MHfl4Qvps3Hz8ndcTsz53Qorww1Rh5FuPx8xD03TzM/zkJHWd/DqcW/LJ6okpOQY+RGGIShSsXn7LTOxaZjyMQbzAQo1hg1jqXFCCKDUJwyTpKvXZj4Xb2PgJPTENr4VXs+M+luudgGTWL3drUTummErtWQ5SB9Bf5EGZkVj9GZV2VSVddvMo7eDypdNL268s3pVS2hLKckoMoERFPhSC+uvy6XUf/1komQQ+MHGKCqCsXISuxjxERb4CBo/pCWmIrtSWjTjW2Rr6sQr3bR1UtZyidB1VGZSyRkvGmLlTNOzU+ZK5UIODfxHs2ceajqZkptNN84OmTWbKPkXkJBz0imLNYsLDTKhKXF0gpYlkC5V5yxdjVqRj37Va42BmXnYHVySX85rC2NID4MSv00tNWCWLkFxSC17wTurYAEkPiYTLjW1yNCMeFdZ2R5L4EW33q+i5W5brVFl5DUzTXjYSnu0/5wzPMgjFeFxAsby1+veqrBqPGRlAvCkfg/crvopboJ2Zh2dC0OXQjPeHuU/4AGEQx8LoQzKaWdYPf3BqWBmI8vh8ou9IgQZyPgkIemnfqyiYrJftK4TWEaXNdRHq6w6fcSEwML1yQa6S6YTT6KxyY0wA3v9uKvV9/iTMaX+Diic9gUVWeEpT67nUiQuJNMOPbq4gIv4B1nZPgvmQrJG5QHP+q/MFHc2tLGIgf436585npClDIa45OzPkKRJVCVKGMFuUhX9wENh1awOhNffxG/lEeY6KmZjDVToOPpw/KK00mLh30QKReLXNHFbmX4Dp2NVLHfYutLnYwLnfMG5KLS65jsTp1HL7d6gK72jZsNBpfHZiDBje/w9a9X+PLMxr44uIJfMYCs9a5pIDi2DM4UtH+0ILVpG1Y5MhHTpawHnLwzWJXPrW0K78pzEy1kebjicrD1kF4PG2qoq7WXrr68k29oGaExkbqKAoPROXSwk5dJWPZX1JjjTD6qwOY0+Amvtu6F19/eQYaX1zEic8sFPq+TjW2SNUYKae3erePqlpeu3mQyliC4vFGLuwEQXKKKVGtIuJ3bGKsivds4gw0HDYLE1qm4sT8sVi2/384d/JrLJzmAbK3ZmeZjWFqooUU/6u4n56FaB93HPPNgCgzGbFs+3lMNFJfJeJJTA4Kkm/hgl8yinOzkBx0B6HZInbGKAmucgdKfVkSbJLbd1oCNbx8loyM9Lu49VANwxfPQ6fsc9h38LFsoBen4cq1eNgvWYS+Anbm98tOHAjIZWOBBYavd8MkS20ItKqf3UoRq+hfqW7ZyC9JtEoTa8kZd5n8DGmDIlnQ6gzCLJfWSDoyBf2nuOGg5xkc3T4brnf0YCW5RSL5LhWhqGyVv1496suD8ahpGNk4Dke+WIXzcSzBCxLwICwVoqxExKawM/BBs+DSOglHpvTHFLeD8DxzFNtnu+KOnpX0trJYJNO1grZyEEPE7CktQBL0hmPxvE7IPrcPBx/Lio447QquxdtjyaK+kLwVW1NLALWXz5CckY67t57CYZYLWicdwZT+U+B20BNnjm7HbNc70JMaST5S2ahUNiaDzLHlhUnmWJkfGEKvtVgfOwJfb1uFxcvdsGvzNNgayD5jB7PDCUXljlDuO34iftl5ADI3DMd6t0mw1BZAS02MHIXx74/U/sr9oTZ8MeZ1ysa5fQchM50YaVeuId5+CRb1VfY+cXZcdAxelvyd+vvvCO2wAJ8P0GJqKPOxHL0ZtfKPipxS2n/DYZg1oSVST8zH2GX78b9zJ/H1wmnwIHtY6yvLHdX+roo4JwbRqa+Q+CQGOQXJuHXBD8nFuchKDsKd0BypHmJJPCn4fikSe1FRkfTqsBRxDmKiU/Eq8QlicgqQfOsC/JKLkZuVjKA7D1XLKfTC2vWxGPH1NqxavBxuuzZjWmlgqswlMTKvbsXECW64nKFEcMrCxe2u8Igof7BOlOKLuzFN4TzJiW3pYFBtc1BTCwK1l3iWnIH0u7cQ3VdV7Naydiq1a6j08Mo0xLBZE9Ay9QTmj12G/f87h5NfL8Q0D4K9dUMVdZVtS31febIh8XVZXWPIxCuRtwZ1ThEiSfxUumIqq6FltlE1TlWFZ4xR00aicdwRfLHqPGSl5QHCUkXISoxFipBq799ayySE19r1iB3xNbatWozlbruweZotykpsvdVYVWOktOXK1Lt9VI2tmUhTNg/KqTLPie6rPJZEimwhPbQa/MamMNFKgf/V+0jPioaP+zH4ZoiQmRyL9Ox85krmS0k+lrmS+Yb9WzHW3wlYwLx35D46SUsGtCFj/YZkajeJdl9PLXvgIefuLhrWqiE1NO1C43dfI29XO7LuO5M2nwyk9KTztLxnM9I3tKS+c3+ka8dnkblBKxq+4w/y+3U9DWrKJ402E2mPdzg9uX2YljkaEE/blua436Kk4mKKPTGN2hkZURvn3XTnpaS3Ior7bQONtutC/SbOpYVzptOCPdcoVSpMAfmu703WtgNpxko32rp2Ps3fflnBAwIvKUxl/8p0u0V+/7eZRrbgk7rFWPryfAjFBZ2lLaPMiK9uQWO3n6Pg2CA6s3kkteTzyXz0dvJ6kk/0+jF5LB1A1oYC0mxgRo7zjlJYLpEoM4g81zmRCTvWZNAaOhnwosS+9aWvBBFl3dtPM+3NydDAnLo5L6Xt8x3Jwn4SrfvZl54xfV8/9qClA6zJUKBJDcwcad7RMOkDCq8jvGjTsObE55vR6G3/R6FCWYuVeU0RXptoWHM+8c1G07b/C5XtLoqj3zaMJrsu/Wji3IU0Z/oC2nOtPH6KY0/QtHZGZNTGmXZLnfyaHnsspQHWhiTQbEBmjvPoqMRICnj16AK5DTdlsrWkUVt+p8CAX2n9oKbE12hDE/d4U/iT23R4mSMZ8LTJdo473UoqpGenp5GFQE1SHwhqasTX1KPGrT+muYfvkL/nOnIyYTqYDKI1JwPoRamgCnwnedhifW9rsh04g1a6baW18+fT9suyB4JEzxTF/23KqoE/iuJ+ow2j7ahLv4k0d+Ecmr5gD12TOV8+0oemNKl5r0k0b/EKWrFkOo2dtIEuxJc/5iHXx6JMClKgd839U7OcUhRjUnIf0cklA6iNsT7LOTuatPt6SawzFNj/ZZgqf5frXoboGZ1f3pOa6RuSZd+59OO14zTL3IBaDd9Bt1MiyGvTMGrOctFs9Db6P7nBLqLMIE9a52TC4s6EBq05SQFSg4no2fnl1LOZPhla9qW5P16j47PMyaDVcHI7/l+VcoqenaZpFgKS3CkF1EiNr0l6jVvTx3OP0iPJk0NKc6mYYtxHUrNmw+mHKDk6l5D/50aaNH0eTR41jJw/mUiTxjvTgD7DaNHhYObBUmqXgyxI6MS0dmRk1Iacd9+RtqM4dl/Ro99qWzvzFNp1x+0sqQjVyaVHJ5fQgDbGpN/QlOwm7abrZcGkpK6+ekS/sb5b8NXJYuyXdD4kjoLObqFRZjJ5t58LptigM7R5ZEvme3Mavd2LJKVdVZ2rDhvf/vyBlvZuTDxeE+q/8kf65U4khV5wo+GmLA9bjqItvwfWKKeqIcqie/tnkr25IRmYdyPnpdtpvqMF2U9aRz/7PmMH1Ma/zF+1lanwGZ2eZkFsPiitsWpqfNLUa0ytP57L+klRWGvqUmOV+lIR9WofCcpreVKisnFAzjxHWSwptYU8cujurmHUqiGbu3UZT7uveZOrnTX1nbmZTt64Tb+uH0RN+RrUZuIe8g5/QrcPLyNHAx5p284h91tJJW38/ahJ/pHOoDk4OP4GxHj22xb8mDMOM7uK8SLzJV7l5UCYEgrPw/GYeekAhim7RPQuUxyMjd0ccH6UH+5v7SJ/DR/HO4v42W/Y8mMOxs3sCvGLTLx8lYccYQpCPQ8jfuYlHHhvA5PjH4X4GX7b8iNyxs1EV/ELZL58hbwcIVJCPXE4fiYuHRim9Co8B0dV3rulGhwcHxLilJNYuvwhLId2gqWNLXo49sEApxEYN2EounX/CJYfxGzzHbvNxqEacQpOLl2Oh5ZD0cnSBrY9HNFngBNGjJuAod2646MPIzA5PnjESDm5FMsfWmJoJ0vY2PaAY58BcBoxDhOGdkP3jyy5E3qOWsNdcebg+BsRp53Hon5T4VHUHSOHO6BtUx2IXyYhNs0QIza4YYKStdTvPPnXsOSjIbgw2AuPDjiVvc6I4z1AnIbzi/phqkcRuo8cDoe2TaEjfomk2DQYjtgAtwmyZw04ON5txEg7vwj9pnqgqPtIDHdoi6Y6YrxMikWa4QhscJsge6aHg6MWcBNnDo6/m/xE3P39Aq6HpiBP3QDmXZzgPKxT+dsV3kfyInH55K+4GZOFYqaTRd/xmDWoNTfZeq/IR+Ld33HheihS8tRhYN4FTs7D0Om9DkyOfyL5iXfx+4XrCE3Jg7qBObo4OWNYp/I3SnBw1AZu4szBwcHBwcHBwcFRA7g1zhwcHBwcHBwcHBw1gJs4c1QhD/HBD5FY199p4eD4K8lPRsijVO7xwzfiA8r5V7EIixZy8fBXUjUH8+IR/DARSsPpTfzE+Zjjb+YDnjiLELmrF7SbDsP34QUl+zhUIU44hFkODph77O1PRsRp9+C5dzk+GfAxeo/ehKuZlXssjLmOYzvnY0TfUVj41QncjBOVfMLBkY2Hp1bCycoKfTbfVD5Iv0VEkbvQS7sphn0fjve1yvyVOf/WECXi2n/moEer9pjgHlH+IzAfMvmXMN9MB23n/YbUv8Vx8nJQjIRDs+DgMBfH5An1Jn76J/qY453kw504i5Pgc6MI844fx+cfcW9pVIg4E8FB0ew0QwbP7DMcvXMHB2c0e+vBwWvaAxNXfI2vZzRFjNd2TJ9zFNEVqqGmZT/MWO4M06JWmLB0Gvoo+g3qSoiRGRyEaG6O/YHTEJ0numKcjeyXpf4exEjyuYGiecdx/POP3tt3wf6VOf/W4LdE/0WfoV/jvzMe3hbya1phwCU8bLcN//vWGc3+FsfJy0EezD47ijt3DmKGPKHexE8ftI853ic+3IlzXhwMp5/AV0OMP2Al35y8gH3Y8HNkhbN3HZjZdkZLrZLNtw4fLbp1gVWzRsi5sBxTtvohp+QTKbyGMGhmAL2aPv6cF4B9G35GJHc54sOHpwc9XQW/7fqXkIc4w+k48dUQGL/XReavzvm3BN8Ihg0/wGovt6aJ8CyzM9yOL0fnv9Nv8nJQxwy2nVtCoVhv4qcP1ccc7xV8N0bJ3+8PuQkIiSmEcWMNpIf7I+S5AE2b6IIvTkHwFV8ERUYhhWeHkf1N8TzoCnyDIxH9gg+Tloay12HlJyP06WsYG2sjO/YBHsQVw8ikofSzwvRH8H+QDJ5xMzTQkBxcTn5KGPwDHyNdrRGaGQhQWi7yEkMRXdgYetlhuJ+kDhNjHdlkXZSFmAeBCE14De0mjaGrbPKnSKeSj6XkpyDMPxCP09XQiE0mBRXrlfSzB4jMVEPDJgZVfiu+EBmRgbgXHIV0aoimRtpMPjGe3/kGs102w0+jHToYFaOooTmasCKYnxyCyDxjGOsIEXH7BgIePUVUVDTSxMZo0VgLr6J8cd0/HFGpIjRq2Rjakr5qo2sVxM9vwevVp1jR2h8/uf8fEm0+xej2DWT2FSXg8plofDS+P0zL6qUIWTEPEBiagNfaTdC4pDPx8zv4ZrYLNvtpoF0HIxQXNYQ5s6GaXP1LyIlGYGQBGjfVV/BqIjGyYwLgH5oKaiBAvpCg++oRrvgGITIqBcWNWsJYkIogFnfBkdF4wTdBS0NJJImRE/sIyeqN0SD3Ke4FPEVeAxM00q5c9EVZMXgQGIqE19po0riyv3MTQhBTaIzGGukI9w/Bc0FT5p/KUiqKyfzkUDx9zXyonY3YBw8QV2wEk4bSCEf6I388SObBuFkDVA5x+XaVUd0O+vqKXy6Xy2LoXnAMclk7DV/FI1FkgAZZD2tgNxmK9KpMMUI9v4I3fwxWjv+oXBdlsSjORkyAP0JTCQ0E+RCSPuSrkYuEkBgUGjeGRno4/EOeQ9C0CWtLjJRgVlOCIhGVwoPdSBaXz4OYXsGIjH4BvklLyNTIR3LoU7w2NoZ2diwePIhDsZEJZC5IxyOWq8k8YzSrUmRqXWPqyWdlOa9X0mON65H8mqNQXkU1TIlfCjMiEXgvGFHphIZNjVAlhZi7WQ4HRiCDx8PTMz/jofkMLHRqUSarshwTZ8cgwD8UqdQAgnwhSF+/yisTxcgIv4Gb9x/jaVQUYjKYLi3YOJIXB/8/7yA0KhmFhmZoop6JyMB7CI5KBzVsCqOqQlakFjbQzVZQ0wqzkP6qAK9Sn1fvrya+K0GcFYHbNwLw6GkUoqLTIDZugcZarxDlex3+4VFIFTWCeWNtiRMU6CcvB1nsh0Qij8V+aThJUOonhe3LeLs+5uCoHUqy+x1EnIF7R5ain1UbDN7mgcMLhmLElGkY0aUDnH94AhHPCBbmmfBY4Iw5P4WxlObB0NQYT753gfPyU0goEuKh5xoMsbZCn02eOLPRBZNnzMYnDjbo+S9vBBxfBOdP52LRZEfY9N6A27ml/abi0rZ5WOF+HSGBv8C1tzUcV19C6vMAHFs+AFbWTtjsvhvjezugV4/pOJImhtB/H2aMXw3P0EREeq1Cn/ZOcLuazspwFVTpJDsIqZe2Yd4Kd1wPCcQvrr1h7bgal9JlreX478GYERvgWyjAS58lcGjXHf0Hj8C4LVeRK4rCsan2GLM3GM9T72LXsLZwdPNDnliIZ5kN0KQhQVyQC6EwG68ygnF69WBYte6DzTfzWXTosoleNA7OHYXRXz6AYXNdacDosElm4Dd7cI/fCLpsR411VQavOSb8eBJru77AyfnT8J8QBatWhf7YN2M8VnuGIjHSC6v6tIeT21Wki5nNn2WiQZOGIHEBcoVCZOcVs4qqQH9pY4W4sWEIHHpOw0+J8qQtROj3s7HUIwHFBU9xclYvfHooDmIjC5hnemCB8xz8FMb64BnC1PgJvndxxvJTCShMvIHvPusJ8/ZT8N1JNzh1tYfToF5ob9UbG28IS9oWwn/fDIxf7YnQxEh4reqD9k5uuMp8Ks64hyNL+8GqzWBs8ziMBUNHYMq0EejSwRk/PCm5X6soJjMfwnPNEFhb9cEmzzPY6DIZM2Z/AgebnviXdwCOL3LGp3MXYbKjDXpvuM2mhyUotKvkQ/l2kHtRPy8cRxeMwLRdlxAecQvfTLaDZfvR+OExy0YVdpNqpkCvklBXidJYLAzF97OXwiOhGAVPT2JWr09xiJ00V4ZNlO4dwdJ+VmgzeBs8Di/A0BFTMG1EF3Rw/gFPRDwYWZgj02MBnOf8BJkapjB+8j1cnJfjVEIRhA89sWaINaz6bILnmY1wmTwDsz9xgE3Pf8E74DgWOX+KuYsmw9GmNzaUFpk61Jj68JlYWCXna1SPFNecsWv24ye58hYrrmEK/SJC1LGpsB+zF8HPU3F31zC0dXSDnyx5GXkI/Wk6BjM/BCVE4PyGJXBncVaO4hyTUBj6PWYv9UBCcQGenpyFXp8eYieY0o8qwIOu/mtc3TQBI6ccQGyTJrIrqVqNIbizHWvOv4Ru6glMtR+DvcHPkXp3F4a1dYRbuZAVUFLH5dqgUG5NE0Udk99fDX1XEZ5uI2hHH8TcUaPx5QNDNJcUdOigqX4gvtlzD/xGuor7qwarwcGnsXqwFVr32QxJOMlQ7ifl7f8VPubgqCWS9zi/VxTH0J6PNUnPbjH9Gl3Adgjp7NSmJLDfQU+KJZ8/pZ0OWmS1/CZJPiX2r+/KtqTVYxs9knwuSqUfnASk03MN3UiR7Cig4I1dSaOBPa36I4mK2J6i0M1kJzCjhZfzJV+gtFMu1H+1H0m2JNtJ3/QnTY2OtC6giEQJ31B/gQ51WvYHpb+MoOtXQigj04cWtmlDi//MlX6DKJf8XD8izWbj6WSKqGRfBVToJEo7RS79V5OfTAASJbE+NTWo47oAKip+RDvs9ajrpodS2anoIW3qKiDLJdel+hdHfEk9tW1pY5BUMwr6d2fSst1I0k1Kpx+HaJPpZ94lukn6OkCDBQ1ogmep7MX0eFcv0mk+nc5lyfaIkg/TwpUXKUeyIaylrnIoCttGY5dclspQHHOcxrfUIK32i+niC/b9glvkOvbfdE8qr5B8FrahNov/ZL3IyPVzpY80m9H4kynMM0yjH4eQtuln5F2ikHL92ffDztC+H69SkjxRC/zItYMtrb77WropSvekXfvDpXYufrqTHLSsaPlNWZRRgS+tbKtFPbY9YhaTfHUltdMwof4bvSmBHZL76CCNNeWTZteNFMwaEPospDZtFlO52VhfH2lSs/EnSWK24pg99LGmHtkt/pVkIXGWpjYVkP2OJ6x9FTGZ+gM5sZjsueYGyUI8mDZ21aAG9qvojySZHUI325HAbCFJQ1yVXZXYoTI59OfyDtTF1besnYI7q8hG0I5c78jspNxuyvWqTi6dGKNNDSZ4yvpTEYsFTKcOtqtJpoaI0j130f5wee0WU8yej0lTz44W/xotzSPh2anUVGBPO2RFhp7udCAtq+VUrsZKaqvVg7bJigyl/uBEAp2etOZGiiwegjdSV40GZL/qD5K5IJQ22wnIbKEk7utQY0T15TP2WdWcV1ljldccefI+T1FcwyRyy/VLcQR92VObbDcGSfspCvo3ddYqzWWm721X6mTB6lKmdJPt+IMWmGtSO9c7Mp8pzbECFhsdyHb1XZJ1m06eu/aT3HBgvL79BYvjtrTilsyezGh0YvoE2h9XSBFf9iTt0ppSFET/7qxVJnNFlNVxhTZgVK5pxcr7U+U7eRQ/pl29dKj59HMkK/EiSj68kFZelFR4Ff1VzUFJLB8YTIIGE6g0nJT7SXn7f6WPOThqyvt1xVkCXxe6OjzodhqMoZaSGy66sLZqAbXsLGTJO6WuCk8f+np8aFraoVszyQ0dTVi3tYBAzQx2jqbS361XtzCHqdpLZAklDebh+q8+SI70xt4dO7Bjxy4cz3WC25aZ6K7LmtPThTZr025gbxjrt0XfgR3B8zmEUwmt0dm29EeGddB9yjjYZHjBwytDtqsiKnTKu/4rfJIj4b1X0v8O7DqeCye3LZgpEaA4HtGJhYBayT0xdUtYtlBDSnwcXrNNvvVCHPc9jWXWSbhxdDcO+WZAXPAa+bIT8mpI9NGpcHuNtYA2M+ZjSP55/HQ6EWKI8OTUXTSbMAB67FOhdy11VQG/1TQcPOmKDok/Yvbsw4gqKvlAgtAbh04loHVnW9aLDJ3uUzDOJgNeHl6Q15sq/XU++gTL5g+osAykAuot0M4yEXtHOsJl6y8I43+CVZ+3l8aIKnja2hDwjeE4xgktmUt1bGZiyzxbUNgt3EzLhPehU0ho3RnlZuuOKeNskOHlAS+mCF+X+YGni06Dh0IWEtawYn7NzspiHlARk/r60ONrwtKuG2Qhbo22FgKomdnB0VQa4bAwN4XayyxIQ1yVXWtqh2wv/PjfHPQcbFfWDr+BPmq+DFm5XqpQFYvqLdrBMnEvRjq6YOsvYeB/sgqft5fnTT50dXXA0+2EwUMtpbd1da2t0EItG1k1KzLQ19cDX9MSdt2aSW8ba1q3hYVADWZ2jpC5wALmpmp4mSVU7U85NcboZT35jFEt51XVWBU1R568WjcV1zCFfuFbY+FxX5xeZo2kG0ex+5AvMsQFeC1N3lfwOXAUUR36ob+hVApAYAZzk9Kb9EIVOaaOFu0skbh3JBxdtuKXMD4+WfU55IYDQ8t+MRb3TcPx//wifYOFKOF/+E1tNNhJPqwXHofv6WWwTrqBo7sPwTdDjILX+bK7HBVQVsdrE5tK+6vL+MhvgxnzhyD//E84LbnzJnqCU3ebYcIASYVX0V81eNBjuVMeTqr8pKz9v9bHHBw15f2bOLOULK3XMtTA57MdVPMnbVkLJX+VwBqstIfHk25Lf1NRnIPnGa+h0c4ZrmvXYm3pf2tWYIwNy8AqTUluL6YnJCNXXIjCgvLSIp2M84ogzHwp55aZMp3EyHmegdca7eDsWqH/tWuwYowN1AU9MHKICaKuXMRTyS2owseIiDfAwFF9pRNb8PjIC/oO8+b/jKSOs/G5ZF2YUkOxfqvoxGv6CeaPN8CNQ4cRmuuP01Ed4dJVUpTroqtqGvbejNPfjALP+1+YvCWgbDmBKD0BybliFBYWlBdt6QSEhyJhJl7K66zW+leA1xIzj12G+2QD+O6cBLu2DlhyNr5OOjFBYdnemg1jRSjIS0NCci7EhYUoN5tsMssrEiJTokjVmFTjQxYSTHhVMSnHh2qVA4yFuGRbljMq7Uo1s4PoWTTiXqlDU6NK5zVFpV7KUB2L1HImjl12x2QDX+ycZIe2DktwNl6+N6vaS43PZyZl9qpp7LCvV2mhSo7zIHNBDfxZuSEp9eUzGVWFVVaPGKpqTjV5ldcwTYV+4YGfF4Tv5s3Hz0kdMftzJ7QoTV5RIiKeCkF8dbknA8xAKnKM0HLmMVx2nwwD352YZNcWDkvOQkE4sPmdBaYtHw/di/vwY0gewv/7J4wnOksfCuXx8xD03TzM/zkJHWd/DqcWfJmdKlFXG1RHeX8qfCcXHpp+Mh/jDW7g0OFQ5PqfRlRHF0hLvOTTGulXAdZdmQiq/MRQ2P5f7WMOjhryHk6cVcGHOjshJXH54ClFrKxwKIHXEKbNdRHp6Q6f5+VtimK8cCG4sGSrInw0t7aEgfgx7gdKrr/IEOcXoJDXHJ26lj/QUDN4aGjaHLqRnnD3eV4+SIpi4HUhGIUwwuivDmBOg5v4butefP3lGWh8cREnPrOQ9pN7yRVjV6di3Ldb4WJX/tv8tbOFLgYumIF24Uexd7MHhH0mopW0ofrWtRR1tJ71M/77L2s83rsOJxJklY7f3BqWBmI8vh8ovbIlRZyPgkIemnfqygbVkn0VeCP9WeEOiTfBjG+vIiL8AtZ1ToL7kq3wkazdY8VcUt6rh1nFllnMVSjSRXn5EDexQYeWLWFtaQDx4/soN5sY+QWF4DXvhK7yFKlIrWNSOSrtCiV2qICagSEaIgkBd2MUn1wos9sb6aU6FpEYgniTGfj2agTCL6xD5yR3LNnqU6d3QPNlRaY8H6WIaz6xrkgd9K4vn9UN5TWnOspr2GtFfsm9BNexq5E67ltsdbGDccXkVTNCYyN1FIUH4n6lF2hLYov1wG+uIsck4RAPkxnf4mpEOC6s64wk9yXYqsRA+oOXYX7nJzi4cyv2B9pg2kDJaUIuLrmOxerUcfh2qwvsKglZkTraoOSwcmraXy3RHYgFM9oh/OhebPYQos/EViW+fMP+VPlJWft/g485OGrC+zdxFosgYqMysYlwKdLBiiWStBjxG8PURAsp/ldxPz0L0T7uOOabAVFmMmLTs1khkiVdpYm15Gy89PsSpA2KJE0ydDBolgtaJx3BlP5T4HbQE2eObsds1zvQs2Kn5JLvUhGKKjxwoDd8MeZ1ysa5fQfxWDruiZF25Rri7ZdgUV85b3tVoZPOoFlwaZ2EI1P6Y4rbQXieOYrts11xR88KmhDCa+16xI74GttWLcZyt13YPM0WBtJWxMiJiUbqq0Q8iclBQfItXPBLRnFuFpKD7iA0RxNaAjW8fJaMjPS7uPUwVyqLZBJT0TwS1DvNwdw+mTh1RoyRzuWv+FOpqzgTV7dOxAS3y8io0mYZhYXIZROccu0lGKLfl6ewd5ghCgpKPtEbjsXzOiH73D4clHUGcdoVXIu3x5JFfaXv0dXUEkDt5TMkZ6Tj7q0gpCnVX4T4Mysw1uU/8C97Sq4CbOL8y84DCGCfaVkMx3q3SbDUFkjfHsBvbAoTrRT4X72P9Kxo+Lgfg2+GCJnJsUjPLinM4jREx7ws+TsVv/8eig4LPscALT0MXzwPnbLPYd/Bx+zkR/J5Gq5ci4f9kkWQmo0FhEgSq2VGkZ34yQYbVTHJ4oZ9saIPJVeqZd+VIQvxkphXZVcldqgIr8kwjOunjXs7p2DBDz64d/8ajh+/hpQKcii3G0+5XtUQMxXK9VIVi6LEX7DzgOQOhhYshq+H2yRLaAu0ql8glbQrS8jymJQlZIlN+WhsagKtFH9cvZ+OrGgfuB/zRYYoE8mx6ZC4X1pPKk2sJXWi9PsSZP4USXfUvsbUl8+kVM15VTVWac1hyJFXWQ3jK/AL5cQgOvUVEp/EIKcgGbcu+CG5OBdZyUG4E66FUdNGonHcEXyx6jzi2MSqIOEBwlJFyEqMRYpQTUWOiZD4y04ckBkIw9e7YZKlNgRyDVQC3wafLR8J0Zl9CLOfhu6SkBTnICY6Fa8SnyAmpwDJty7AL7kYuVnJCLoTKvteCXWxgUSaSjXtxl08VtafSt8pQh2d5sxFn8xTOCMeCefS9yuq1K9yDkoQs7oijXXJBs9YuZ8y0xS375/69nxck3GJg0MR0pXO7w0vKezX9TSoKZ802kykPd7h9OT2YVrmaEA8bVua436LkoqJcu7uomGtGlJD0y40fvc18na1I+u+M2nzyVvk93+baWQLPqlbjKUvz4dQXNBZ2jLKjPjqFjR2+zkKjg2iM5tHUks+n8xHbyevJ5InMl7TY4+lNMDakASaDcjMcR4dDcslUWYQea5zIhN2rMmgNXQy4AWVPmNWFPcbbRhtR136TaS5C+fQ9AV76FqqvCfQaqbT68cetHSANRkKNKmBmSPNOxomexhD9IxOT7MgNv+VlEdSU+OTpl5jav3xXDr6KJ99fJ6W92xG+oaW1Hfuj3Tt+CwyN2hFw3fcpiwqptgT06idkRG1cd5Nd1Ie0QW34WTK9Gk5agv9/rj0iQsZWefm0LBND6o99KJU1+IYch/ZjJoN/4Giqj2cUkwJvh60Z9pHpGs2gjb+fJmeVO6SRBmXaeWULVT2bFhRHP22YTTZdelHE+cupDnTF9Cea6lldi+OPUHT2hmRURtn2n3npQr9iyhgS09qZDaNPNPl+KbAl9b3tibbgTNopdtWWjt/Pm2/LHsIUfIg3N1dw6hVw4Zk2mU87b7mTa521tR35mY6GfhC9iCTZnPqNWkeLV6xgpZMH0uTNlyg+DIbFFHcbxtotF0X6jdxLi2cM50W7LlGUrO9DKNf1w+ipnwNajNxD3mHP6Hbh5eRowGPtG3nkPutJHaQ/JikV4/oNxa/LfjqZDH2SzofEkdBZ7fQKDNZzG8/F0yxQWdo88iWxOeb0+jtXiQNcWV2VWqHyoieXSY35/ZkrNeQLPqvoP9d3ETdtMofDlRlN4V6VeM1RXhtomHN+cQ3G03b/i9UuldZLBb4rqfe1rY0cMZKctu6lubP306X5TzA+jLsV1o/qCnxNdrQxD3eFP7kNh1e5kgGPG2yneNOt2RFhnYNa0UNG5pSl/G76Zq3K9lZ96WZm0/SLb//Y/ZtIaspX56nkLggOrtlFJlJfbKdzgXHUtAZVodaMtnNR9N2ryeUX4caUy8+Y/FSOedTVdejQsU15/Adf4XyKqphCv3Catv55T2pmb4hWfadSz9eO06zzA2o1fAddFvyFJsoi+7tn0n25oZkYN6NnJdup/mOFmQ/aR397PuMHaAkx6iAfNf3JmvbgTRjpRttXTuf5m+/LH0wVyn5N+lfdqPIvexpYhE9O7+cejbTJ0PLvjT3x2t0fJY5GbQaTjukQlam1jZgVK5pQiX9JdRoLFFMFp2bM4w2PahY4ZXpl1ItB189ukBuw01ZbWlJo7b8TtIhRKmfkpTb7235WOm4xMGhHDXJP9IZNMf7ifgZftvyI3LGzURX8QtkvnyFvBwhUkI9cTh+Ji4dGPbe/qLZ+0xx8EZ0cziPUX73sbWLqvW5Hy6iR9tgb3cS/a89xG57eVeNOd47/sE1R5z4E2ZtM8I+909R+rwaBwfHP4sPcI3zPwkxUk4uxfKHlhjayRI2tj3g2GcAnEaMw4Sh3dD9I0uFD2Rw/EVwtwE5Pij+iTVHjLzsHBQiF/7uV2AydSQ3aebg+AfDTZzfc3gNjCG4sgw9B7hg6fot2L7dDasXzsCC/5lj/ry2Ch7W4XjbFGdlIUeUjReZsvWn/1SKX7xAtugVhMKKC3Q53mf+aTVH9GgnBjRtBONmbbHouQuWO77vv03OwcHxJnBLNT4A8hPv4vcL1xGakgd1A3N0cXLGsE7lb5Dg+GvJi7yMk7/eRExWMfOHBfqOn4VBrf95yxREyb74r8clRGQUQd3QEgMnzkY/Cy4qPwT+UTVHlIArP/4XD42cMH1C9/K3e3BwcPwj4SbOHBwcHBwcHBwcHDWAW6rBwcHBwcHBwcHBUQO4iTMHBwcHBwcHBwdHDeAmzhwcHBwcHBwcHBw1gJs4c3BwcHBwcHBwcKgE+H/iZQGmiYKlOgAAAABJRU5ErkJggg==;" vertex="1" parent="1">
          <mxGeometry x="183" y="10" width="460.26" height="50" as="geometry" />
        </mxCell>
        <mxCell id="KA73Mk2cupbZ6rBoXo2E-2" value="can 0" style="rounded=1;whiteSpace=wrap;html=1;" vertex="1" parent="1">
          <mxGeometry x="360" y="60" width="70" height="20" as="geometry" />
        </mxCell>
        <mxCell id="KA73Mk2cupbZ6rBoXo2E-3" value="alm cont" style="rounded=1;whiteSpace=wrap;html=1;" vertex="1" parent="1">
          <mxGeometry x="360" y="85" width="70" height="20" as="geometry" />
        </mxCell>
        <mxCell id="KA73Mk2cupbZ6rBoXo2E-4" value="can1" style="rounded=1;whiteSpace=wrap;html=1;" vertex="1" parent="1">
          <mxGeometry x="360" y="110" width="70" height="20" as="geometry" />
        </mxCell>
        <mxCell id="KA73Mk2cupbZ6rBoXo2E-5" value="alm&amp;nbsp; uno" style="rounded=1;whiteSpace=wrap;html=1;" vertex="1" parent="1">
          <mxGeometry x="360" y="134" width="70" height="20" as="geometry" />
        </mxCell>
        <mxCell id="KA73Mk2cupbZ6rBoXo2E-6" value="lea 3000" style="shape=trapezoid;perimeter=trapezoidPerimeter;whiteSpace=wrap;html=1;fixedSize=1;direction=west;" vertex="1" parent="1">
          <mxGeometry x="332.5" y="160" width="125" height="20" as="geometry" />
        </mxCell>
        <mxCell id="KA73Mk2cupbZ6rBoXo2E-7" value="alm rangMin" style="rounded=1;whiteSpace=wrap;html=1;" vertex="1" parent="1">
          <mxGeometry x="360" y="186" width="70" height="20" as="geometry" />
        </mxCell>
        <mxCell id="KA73Mk2cupbZ6rBoXo2E-8" value="lea 3000" style="shape=trapezoid;perimeter=trapezoidPerimeter;whiteSpace=wrap;html=1;fixedSize=1;direction=west;" vertex="1" parent="1">
          <mxGeometry x="332.5" y="210" width="125" height="20" as="geometry" />
        </mxCell>
        <mxCell id="KA73Mk2cupbZ6rBoXo2E-9" value="alm rangMax" style="rounded=1;whiteSpace=wrap;html=1;" vertex="1" parent="1">
          <mxGeometry x="355" y="233" width="80" height="20" as="geometry" />
        </mxCell>
        <mxCell id="KA73Mk2cupbZ6rBoXo2E-10" value="lea 3000" style="shape=trapezoid;perimeter=trapezoidPerimeter;whiteSpace=wrap;html=1;fixedSize=1;direction=west;" vertex="1" parent="1">
          <mxGeometry x="332.5" y="260" width="125" height="20" as="geometry" />
        </mxCell>
        <mxCell id="KA73Mk2cupbZ6rBoXo2E-13" value="mul uno" style="rounded=1;whiteSpace=wrap;html=1;" vertex="1" parent="1">
          <mxGeometry x="360" y="285" width="70" height="24" as="geometry" />
        </mxCell>
        <mxCell id="KA73Mk2cupbZ6rBoXo2E-21" style="edgeStyle=orthogonalEdgeStyle;rounded=0;orthogonalLoop=1;jettySize=auto;html=1;exitX=1;exitY=0.5;exitDx=0;exitDy=0;entryX=0.5;entryY=0;entryDx=0;entryDy=0;" edge="1" parent="1" source="KA73Mk2cupbZ6rBoXo2E-14" target="KA73Mk2cupbZ6rBoXo2E-15">
          <mxGeometry relative="1" as="geometry" />
        </mxCell>
        <mxCell id="KA73Mk2cupbZ6rBoXo2E-14" value="JN" style="rhombus;whiteSpace=wrap;html=1;" vertex="1" parent="1">
          <mxGeometry x="355" y="309" width="75" height="41" as="geometry" />
        </mxCell>
        <mxCell id="KA73Mk2cupbZ6rBoXo2E-15" value="car cont" style="rounded=1;whiteSpace=wrap;html=1;" vertex="1" parent="1">
          <mxGeometry x="457.5" y="360" width="70" height="24" as="geometry" />
        </mxCell>
        <mxCell id="KA73Mk2cupbZ6rBoXo2E-16" value="esa 6000&lt;br&gt;" style="shape=trapezoid;perimeter=trapezoidPerimeter;whiteSpace=wrap;html=1;fixedSize=1;direction=east;" vertex="1" parent="1">
          <mxGeometry x="430" y="390" width="125" height="20" as="geometry" />
        </mxCell>
        <mxCell id="KA73Mk2cupbZ6rBoXo2E-18" value="PAR" style="ellipse;whiteSpace=wrap;html=1;" vertex="1" parent="1">
          <mxGeometry x="452" y="410" width="81" height="30" as="geometry" />
        </mxCell>
        <mxCell id="KA73Mk2cupbZ6rBoXo2E-22" value="" style="endArrow=none;html=1;rounded=0;entryX=0.5;entryY=1;entryDx=0;entryDy=0;" edge="1" parent="1" target="KA73Mk2cupbZ6rBoXo2E-14">
          <mxGeometry width="50" height="50" relative="1" as="geometry">
            <mxPoint x="393" y="440" as="sourcePoint" />
            <mxPoint x="394.78999999999996" y="360" as="targetPoint" />
          </mxGeometry>
        </mxCell>
        <mxCell id="KA73Mk2cupbZ6rBoXo2E-23" value="res rangMin" style="rounded=1;whiteSpace=wrap;html=1;" vertex="1" parent="1">
          <mxGeometry x="357.5" y="440" width="70" height="20" as="geometry" />
        </mxCell>
        <mxCell id="KA73Mk2cupbZ6rBoXo2E-44" style="edgeStyle=orthogonalEdgeStyle;rounded=0;orthogonalLoop=1;jettySize=auto;html=1;exitX=1;exitY=0.5;exitDx=0;exitDy=0;entryX=0.426;entryY=0.041;entryDx=0;entryDy=0;entryPerimeter=0;" edge="1" parent="1" source="KA73Mk2cupbZ6rBoXo2E-24" target="KA73Mk2cupbZ6rBoXo2E-31">
          <mxGeometry relative="1" as="geometry">
            <mxPoint x="480" y="485.1379310344828" as="targetPoint" />
          </mxGeometry>
        </mxCell>
        <mxCell id="KA73Mk2cupbZ6rBoXo2E-24" value="JN" style="rhombus;whiteSpace=wrap;html=1;" vertex="1" parent="1">
          <mxGeometry x="353" y="460" width="77" height="50" as="geometry" />
        </mxCell>
        <mxCell id="KA73Mk2cupbZ6rBoXo2E-30" value="" style="endArrow=none;html=1;rounded=0;" edge="1" parent="1">
          <mxGeometry width="50" height="50" relative="1" as="geometry">
            <mxPoint x="391.16" y="560" as="sourcePoint" />
            <mxPoint x="391.16" y="510" as="targetPoint" />
          </mxGeometry>
        </mxCell>
        <mxCell id="KA73Mk2cupbZ6rBoXo2E-31" value="JI 08" style="shape=step;perimeter=stepPerimeter;whiteSpace=wrap;html=1;fixedSize=1;" vertex="1" parent="1">
          <mxGeometry x="446" y="505" width="87" height="20" as="geometry" />
        </mxCell>
        <mxCell id="KA73Mk2cupbZ6rBoXo2E-32" value="&lt;font style=&quot;font-size: 10px;&quot;&gt;00&lt;/font&gt;" style="text;html=1;strokeColor=none;fillColor=none;align=center;verticalAlign=middle;whiteSpace=wrap;rounded=0;" vertex="1" parent="1">
          <mxGeometry x="310" y="55" width="60" height="30" as="geometry" />
        </mxCell>
        <mxCell id="KA73Mk2cupbZ6rBoXo2E-33" value="&lt;font style=&quot;font-size: 10px;&quot;&gt;01&lt;/font&gt;" style="text;html=1;strokeColor=none;fillColor=none;align=center;verticalAlign=middle;whiteSpace=wrap;rounded=0;" vertex="1" parent="1">
          <mxGeometry x="310" y="81" width="60" height="30" as="geometry" />
        </mxCell>
        <mxCell id="KA73Mk2cupbZ6rBoXo2E-34" value="&lt;font style=&quot;font-size: 10px;&quot;&gt;02&lt;/font&gt;" style="text;html=1;strokeColor=none;fillColor=none;align=center;verticalAlign=middle;whiteSpace=wrap;rounded=0;" vertex="1" parent="1">
          <mxGeometry x="310" y="105" width="60" height="30" as="geometry" />
        </mxCell>
        <mxCell id="KA73Mk2cupbZ6rBoXo2E-35" value="&lt;font style=&quot;font-size: 10px;&quot;&gt;03&lt;/font&gt;" style="text;html=1;strokeColor=none;fillColor=none;align=center;verticalAlign=middle;whiteSpace=wrap;rounded=0;" vertex="1" parent="1">
          <mxGeometry x="310" y="129" width="60" height="30" as="geometry" />
        </mxCell>
        <mxCell id="KA73Mk2cupbZ6rBoXo2E-36" value="&lt;font style=&quot;font-size: 10px;&quot;&gt;04&lt;/font&gt;" style="text;html=1;strokeColor=none;fillColor=none;align=center;verticalAlign=middle;whiteSpace=wrap;rounded=0;" vertex="1" parent="1">
          <mxGeometry x="280" y="160" width="70" height="21" as="geometry" />
        </mxCell>
        <mxCell id="KA73Mk2cupbZ6rBoXo2E-37" value="&lt;font style=&quot;font-size: 10px;&quot;&gt;05&lt;/font&gt;" style="text;html=1;strokeColor=none;fillColor=none;align=center;verticalAlign=middle;whiteSpace=wrap;rounded=0;" vertex="1" parent="1">
          <mxGeometry x="280" y="185" width="70" height="21" as="geometry" />
        </mxCell>
        <mxCell id="KA73Mk2cupbZ6rBoXo2E-38" value="&lt;font style=&quot;font-size: 10px;&quot;&gt;06&lt;/font&gt;" style="text;html=1;strokeColor=none;fillColor=none;align=center;verticalAlign=middle;whiteSpace=wrap;rounded=0;" vertex="1" parent="1">
          <mxGeometry x="280" y="209" width="70" height="21" as="geometry" />
        </mxCell>
        <mxCell id="KA73Mk2cupbZ6rBoXo2E-39" value="&lt;font style=&quot;font-size: 10px;&quot;&gt;07&lt;/font&gt;" style="text;html=1;strokeColor=none;fillColor=none;align=center;verticalAlign=middle;whiteSpace=wrap;rounded=0;" vertex="1" parent="1">
          <mxGeometry x="280" y="233" width="70" height="21" as="geometry" />
        </mxCell>
        <mxCell id="KA73Mk2cupbZ6rBoXo2E-40" value="&lt;font style=&quot;font-size: 10px;&quot;&gt;08&lt;/font&gt;" style="text;html=1;strokeColor=none;fillColor=none;align=center;verticalAlign=middle;whiteSpace=wrap;rounded=0;" vertex="1" parent="1">
          <mxGeometry x="280" y="260" width="70" height="21" as="geometry" />
        </mxCell>
        <mxCell id="KA73Mk2cupbZ6rBoXo2E-41" value="&lt;font style=&quot;font-size: 10px;&quot;&gt;09&lt;/font&gt;" style="text;html=1;strokeColor=none;fillColor=none;align=center;verticalAlign=middle;whiteSpace=wrap;rounded=0;" vertex="1" parent="1">
          <mxGeometry x="280" y="286.5" width="70" height="21" as="geometry" />
        </mxCell>
        <mxCell id="KA73Mk2cupbZ6rBoXo2E-42" value="&lt;font style=&quot;font-size: 10px;&quot;&gt;10&lt;/font&gt;" style="text;html=1;strokeColor=none;fillColor=none;align=center;verticalAlign=middle;whiteSpace=wrap;rounded=0;" vertex="1" parent="1">
          <mxGeometry x="280" y="319" width="70" height="21" as="geometry" />
        </mxCell>
        <mxCell id="KA73Mk2cupbZ6rBoXo2E-43" style="edgeStyle=orthogonalEdgeStyle;rounded=0;orthogonalLoop=1;jettySize=auto;html=1;exitX=1;exitY=0.5;exitDx=0;exitDy=0;entryX=0.06;entryY=0.984;entryDx=0;entryDy=0;entryPerimeter=0;" edge="1" parent="1" source="KA73Mk2cupbZ6rBoXo2E-31" target="KA73Mk2cupbZ6rBoXo2E-10">
          <mxGeometry relative="1" as="geometry">
            <Array as="points">
              <mxPoint x="560" y="515" />
              <mxPoint x="560" y="240" />
              <mxPoint x="450" y="240" />
            </Array>
          </mxGeometry>
        </mxCell>
        <mxCell id="KA73Mk2cupbZ6rBoXo2E-45" value="res rangMax" style="rounded=1;whiteSpace=wrap;html=1;" vertex="1" parent="1">
          <mxGeometry x="353" y="560" width="80" height="20" as="geometry" />
        </mxCell>
        <mxCell id="KA73Mk2cupbZ6rBoXo2E-50" style="edgeStyle=orthogonalEdgeStyle;rounded=0;orthogonalLoop=1;jettySize=auto;html=1;exitX=1;exitY=0.5;exitDx=0;exitDy=0;entryX=0.5;entryY=0;entryDx=0;entryDy=0;" edge="1" parent="1" source="KA73Mk2cupbZ6rBoXo2E-46" target="KA73Mk2cupbZ6rBoXo2E-47">
          <mxGeometry relative="1" as="geometry" />
        </mxCell>
        <mxCell id="KA73Mk2cupbZ6rBoXo2E-46" value="JN" style="rhombus;whiteSpace=wrap;html=1;" vertex="1" parent="1">
          <mxGeometry x="353" y="585" width="77" height="50" as="geometry" />
        </mxCell>
        <mxCell id="KA73Mk2cupbZ6rBoXo2E-47" value="car cont" style="rounded=1;whiteSpace=wrap;html=1;" vertex="1" parent="1">
          <mxGeometry x="446" y="635" width="80" height="20" as="geometry" />
        </mxCell>
        <mxCell id="KA73Mk2cupbZ6rBoXo2E-48" value="sum uno" style="rounded=1;whiteSpace=wrap;html=1;" vertex="1" parent="1">
          <mxGeometry x="446" y="660" width="80" height="20" as="geometry" />
        </mxCell>
        <mxCell id="KA73Mk2cupbZ6rBoXo2E-49" value="alm cont&amp;nbsp;" style="rounded=1;whiteSpace=wrap;html=1;" vertex="1" parent="1">
          <mxGeometry x="446" y="685" width="80" height="20" as="geometry" />
        </mxCell>
        <mxCell id="KA73Mk2cupbZ6rBoXo2E-52" style="edgeStyle=orthogonalEdgeStyle;rounded=0;orthogonalLoop=1;jettySize=auto;html=1;" edge="1" parent="1" source="KA73Mk2cupbZ6rBoXo2E-51">
          <mxGeometry relative="1" as="geometry">
            <mxPoint x="560" y="510" as="targetPoint" />
          </mxGeometry>
        </mxCell>
        <mxCell id="KA73Mk2cupbZ6rBoXo2E-51" value="JI 08" style="shape=step;perimeter=stepPerimeter;whiteSpace=wrap;html=1;fixedSize=1;" vertex="1" parent="1">
          <mxGeometry x="446" y="710" width="74" height="20" as="geometry" />
        </mxCell>
        <mxCell id="KA73Mk2cupbZ6rBoXo2E-53" value="" style="endArrow=none;html=1;rounded=0;exitX=0.5;exitY=0;exitDx=0;exitDy=0;" edge="1" parent="1" source="KA73Mk2cupbZ6rBoXo2E-54">
          <mxGeometry width="50" height="50" relative="1" as="geometry">
            <mxPoint x="390" y="720" as="sourcePoint" />
            <mxPoint x="391.21" y="635" as="targetPoint" />
          </mxGeometry>
        </mxCell>
        <mxCell id="KA73Mk2cupbZ6rBoXo2E-73" style="edgeStyle=orthogonalEdgeStyle;rounded=0;orthogonalLoop=1;jettySize=auto;html=1;exitX=1;exitY=0.5;exitDx=0;exitDy=0;entryX=0.5;entryY=0;entryDx=0;entryDy=0;" edge="1" parent="1" source="KA73Mk2cupbZ6rBoXo2E-54" target="KA73Mk2cupbZ6rBoXo2E-55">
          <mxGeometry relative="1" as="geometry" />
        </mxCell>
        <mxCell id="KA73Mk2cupbZ6rBoXo2E-54" value="JZ" style="rhombus;whiteSpace=wrap;html=1;" vertex="1" parent="1">
          <mxGeometry x="351.5" y="720" width="80" height="50" as="geometry" />
        </mxCell>
        <mxCell id="KA73Mk2cupbZ6rBoXo2E-72" style="edgeStyle=orthogonalEdgeStyle;rounded=0;orthogonalLoop=1;jettySize=auto;html=1;exitX=1;exitY=0.5;exitDx=0;exitDy=0;entryX=1;entryY=0.25;entryDx=0;entryDy=0;" edge="1" parent="1" source="KA73Mk2cupbZ6rBoXo2E-55" target="KA73Mk2cupbZ6rBoXo2E-47">
          <mxGeometry relative="1" as="geometry" />
        </mxCell>
        <mxCell id="KA73Mk2cupbZ6rBoXo2E-55" value="JI 21" style="shape=step;perimeter=stepPerimeter;whiteSpace=wrap;html=1;fixedSize=1;" vertex="1" parent="1">
          <mxGeometry x="446" y="770" width="74" height="20" as="geometry" />
        </mxCell>
        <mxCell id="KA73Mk2cupbZ6rBoXo2E-65" style="edgeStyle=orthogonalEdgeStyle;rounded=0;orthogonalLoop=1;jettySize=auto;html=1;exitX=1;exitY=0.5;exitDx=0;exitDy=0;" edge="1" parent="1" source="KA73Mk2cupbZ6rBoXo2E-57">
          <mxGeometry relative="1" as="geometry">
            <mxPoint x="560" y="720" as="targetPoint" />
          </mxGeometry>
        </mxCell>
        <mxCell id="KA73Mk2cupbZ6rBoXo2E-57" value="JI 08" style="shape=step;perimeter=stepPerimeter;whiteSpace=wrap;html=1;fixedSize=1;" vertex="1" parent="1">
          <mxGeometry x="356" y="820" width="74" height="20" as="geometry" />
        </mxCell>
        <mxCell id="KA73Mk2cupbZ6rBoXo2E-59" value="&lt;font style=&quot;font-size: 10px;&quot;&gt;11&lt;/font&gt;" style="text;html=1;strokeColor=none;fillColor=none;align=center;verticalAlign=middle;whiteSpace=wrap;rounded=0;" vertex="1" parent="1">
          <mxGeometry x="280" y="439" width="70" height="21" as="geometry" />
        </mxCell>
        <mxCell id="KA73Mk2cupbZ6rBoXo2E-60" value="&lt;font style=&quot;font-size: 10px;&quot;&gt;12&lt;/font&gt;" style="text;html=1;strokeColor=none;fillColor=none;align=center;verticalAlign=middle;whiteSpace=wrap;rounded=0;" vertex="1" parent="1">
          <mxGeometry x="280" y="474.5" width="70" height="21" as="geometry" />
        </mxCell>
        <mxCell id="KA73Mk2cupbZ6rBoXo2E-61" value="&lt;font style=&quot;font-size: 10px;&quot;&gt;13&lt;/font&gt;" style="text;html=1;strokeColor=none;fillColor=none;align=center;verticalAlign=middle;whiteSpace=wrap;rounded=0;" vertex="1" parent="1">
          <mxGeometry x="280" y="559" width="70" height="21" as="geometry" />
        </mxCell>
        <mxCell id="KA73Mk2cupbZ6rBoXo2E-62" value="&lt;font style=&quot;font-size: 10px;&quot;&gt;14&lt;/font&gt;" style="text;html=1;strokeColor=none;fillColor=none;align=center;verticalAlign=middle;whiteSpace=wrap;rounded=0;" vertex="1" parent="1">
          <mxGeometry x="280" y="599.5" width="70" height="21" as="geometry" />
        </mxCell>
        <mxCell id="KA73Mk2cupbZ6rBoXo2E-63" value="&lt;font style=&quot;font-size: 10px;&quot;&gt;15&lt;/font&gt;" style="text;html=1;strokeColor=none;fillColor=none;align=center;verticalAlign=middle;whiteSpace=wrap;rounded=0;" vertex="1" parent="1">
          <mxGeometry x="283" y="734.5" width="70" height="21" as="geometry" />
        </mxCell>
        <mxCell id="KA73Mk2cupbZ6rBoXo2E-64" value="&lt;font style=&quot;font-size: 10px;&quot;&gt;16&lt;/font&gt;" style="text;html=1;strokeColor=none;fillColor=none;align=center;verticalAlign=middle;whiteSpace=wrap;rounded=0;" vertex="1" parent="1">
          <mxGeometry x="280" y="819" width="70" height="21" as="geometry" />
        </mxCell>
        <mxCell id="KA73Mk2cupbZ6rBoXo2E-66" value="" style="endArrow=none;html=1;rounded=0;exitX=0.468;exitY=0.05;exitDx=0;exitDy=0;exitPerimeter=0;" edge="1" parent="1" source="KA73Mk2cupbZ6rBoXo2E-57">
          <mxGeometry width="50" height="50" relative="1" as="geometry">
            <mxPoint x="390" y="810" as="sourcePoint" />
            <mxPoint x="391" y="770" as="targetPoint" />
          </mxGeometry>
        </mxCell>
        <mxCell id="KA73Mk2cupbZ6rBoXo2E-67" value="&lt;font style=&quot;font-size: 10px;&quot;&gt;17&lt;/font&gt;" style="text;html=1;strokeColor=none;fillColor=none;align=center;verticalAlign=middle;whiteSpace=wrap;rounded=0;" vertex="1" parent="1">
          <mxGeometry x="400" y="360" width="70" height="21" as="geometry" />
        </mxCell>
        <mxCell id="KA73Mk2cupbZ6rBoXo2E-68" value="&lt;font style=&quot;font-size: 10px;&quot;&gt;18&lt;/font&gt;" style="text;html=1;strokeColor=none;fillColor=none;align=center;verticalAlign=middle;whiteSpace=wrap;rounded=0;" vertex="1" parent="1">
          <mxGeometry x="387.5" y="389" width="70" height="21" as="geometry" />
        </mxCell>
        <mxCell id="KA73Mk2cupbZ6rBoXo2E-69" value="&lt;font style=&quot;font-size: 10px;&quot;&gt;19&lt;/font&gt;" style="text;html=1;strokeColor=none;fillColor=none;align=center;verticalAlign=middle;whiteSpace=wrap;rounded=0;" vertex="1" parent="1">
          <mxGeometry x="400" y="416" width="70" height="21" as="geometry" />
        </mxCell>
        <mxCell id="KA73Mk2cupbZ6rBoXo2E-70" value="&lt;font style=&quot;font-size: 10px;&quot;&gt;20&lt;/font&gt;" style="text;html=1;strokeColor=none;fillColor=none;align=center;verticalAlign=middle;whiteSpace=wrap;rounded=0;" vertex="1" parent="1">
          <mxGeometry x="390" y="504.5" width="70" height="21" as="geometry" />
        </mxCell>
        <mxCell id="KA73Mk2cupbZ6rBoXo2E-71" value="&lt;font style=&quot;font-size: 10px;&quot;&gt;21&lt;/font&gt;" style="text;html=1;strokeColor=none;fillColor=none;align=center;verticalAlign=middle;whiteSpace=wrap;rounded=0;" vertex="1" parent="1">
          <mxGeometry x="390" y="635" width="70" height="21" as="geometry" />
        </mxCell>
        <mxCell id="KA73Mk2cupbZ6rBoXo2E-74" value="&lt;font style=&quot;font-size: 10px;&quot;&gt;22&lt;/font&gt;" style="text;html=1;strokeColor=none;fillColor=none;align=center;verticalAlign=middle;whiteSpace=wrap;rounded=0;" vertex="1" parent="1">
          <mxGeometry x="390" y="660" width="70" height="21" as="geometry" />
        </mxCell>
        <mxCell id="KA73Mk2cupbZ6rBoXo2E-75" value="&lt;font style=&quot;font-size: 10px;&quot;&gt;23&lt;/font&gt;" style="text;html=1;strokeColor=none;fillColor=none;align=center;verticalAlign=middle;whiteSpace=wrap;rounded=0;" vertex="1" parent="1">
          <mxGeometry x="390" y="681" width="70" height="21" as="geometry" />
        </mxCell>
        <mxCell id="KA73Mk2cupbZ6rBoXo2E-76" value="&lt;font style=&quot;font-size: 10px;&quot;&gt;24&lt;/font&gt;" style="text;html=1;strokeColor=none;fillColor=none;align=center;verticalAlign=middle;whiteSpace=wrap;rounded=0;" vertex="1" parent="1">
          <mxGeometry x="390" y="705" width="70" height="21" as="geometry" />
        </mxCell>
        <mxCell id="KA73Mk2cupbZ6rBoXo2E-77" value="&lt;font style=&quot;font-size: 10px;&quot;&gt;25&lt;/font&gt;" style="text;html=1;strokeColor=none;fillColor=none;align=center;verticalAlign=middle;whiteSpace=wrap;rounded=0;" vertex="1" parent="1">
          <mxGeometry x="390" y="770" width="70" height="21" as="geometry" />
        </mxCell>
      </root>
    </mxGraphModel>
  </diagram>
</mxfile>
